<?xml version="1.0" encoding="UTF-8"?>
<svg xmlns="http://www.w3.org/2000/svg" viewBox="0 0 1080 1080">
    <g transform="matrix(1 0 0 1 -248.53 -95.16)">
        <path id="BR-AC" title="Acre" 
                fill="#ccc" stroke="#424242" stroke-width="0.5"
                vector-effect="non-scaling-stroke"
                transform=" translate(-57.47, -224.1)"
                d="M 30.47 237.77 L 28.39 237.73 L 28.93 235.92 L 28.72 235.09 L 28.47 234.6 L 27.22 233.9 L 27.08 233.45 L 27.35 232.3 L 26.58 230.35 L 25.49 229.71 L 19.89 228.46 L 12.55 228.27 L 12.82 227.71 L 15.31 225.45 L 16.2 224.22 L 16.49 223.02 L 16.27 221.79 L 15.59 220.88 L 14.76 220.44 L 13.08 217.49 L 12.31 217.05 L 11.41 216.86 L 10.28 215.73 L 9.36 213.35 L 7.36 211.82 L 6.38 208.2 L 5.51 206.56 L 3.63 205.48 L 3.55 204.31 L 4.36 204.41 L 4.78 203.89 L 4.85 203.22 L 4.65 202.8 L 2.53 201.87 L 2.17 201.21 L 0 199.32 L 0.04 198.95 L 0.66 198.9 L 1.16 197.58 L 1.15 196.27 L 4.16 195.88 L 4.66 195.49 L 4.44 194.14 L 3.27 192.57 L 3.27 192.57 L 21.22 200.05 L 44.88 205.71 L 57.02 208.85 L 83.46 223.02 L 111.97 235.15 L 111.97 235.15 L 114.94 236.41 L 114.94 236.41 L 114.64 236.89 L 113.07 237.55 L 110.98 239.14 L 108.12 241.93 L 106.47 242.79 L 105.81 242.61 L 104.28 242.79 L 104.23 243.35 L 102.31 244.65 L 100.23 245.64 L 98.79 247.47 L 98.35 248.65 L 97.74 248.93 L 96.57 248.18 L 95.81 248.05 L 93.44 248.1 L 92.76 248.36 L 92.13 248.81 L 91.77 249.67 L 89.33 253.15 L 85.56 254.4 L 84.72 255.09 L 82.78 255.6 L 81.75 255.63 L 81.83 253.52 L 80.47 253.72 L 76.92 252.95 L 71.68 252.48 L 66.59 252.86 L 65.93 252.28 L 63.66 252.11 L 60.1 253.94 L 57.37 254.56 L 55.69 253.89 L 54.29 252.45 L 52.65 253.61 L 52.69 236.06 L 52.74 234.96 L 53.21 234.25 L 53.28 231.9 L 53.02 231.02 L 53.99 229.84 L 54.47 228.7 L 53.31 228.9 L 50.34 231.49 L 48.74 232.5 L 46.68 234.88 L 44.73 235.55 L 44.08 236.63 L 42.27 237.62 z"
                
                
                
               />
    </g>
</svg>