<?xml version="1.0" encoding="UTF-8"?>
<svg xmlns="http://www.w3.org/2000/svg" viewBox="0 0 1080 1080">
    <g transform="matrix(1 0 0 1 276.36 -86.82)">
        <path id="BR-AL" title="Alagoas" 
                fill="#ccc" stroke="#424242" stroke-width="0.5"
                vector-effect="non-scaling-stroke"
                transform=" translate(-582.36, -232.44)"
                d="M 561.91 230.3 L 561.71 229.57 L 560.29 228.79 L 559.84 228.88 L 558.82 228.59 L 558.28 227.19 L 558.28 227.19 L 559.6 226.12 L 560.24 225.03 L 562.41 224.27 L 564.79 220.98 L 564.88 220.29 L 565.7 219.69 L 566.7 220.91 L 568.37 221.21 L 569.45 221.09 L 572 223.11 L 573.9 225.23 L 575.68 226.28 L 577.59 226.76 L 580.09 226.11 L 583.23 226.4 L 584.4 226.29 L 586.26 225.23 L 587.42 225.28 L 589.23 224.17 L 591.41 221.88 L 591.53 221.43 L 593.08 220.19 L 595.08 219.95 L 597.32 220.8 L 599.88 219.51 L 601.35 219.32 L 603.27 220.13 L 606.17 220.4 L 606.44 220.61 L 606.44 220.61 L 603.66 225.57 L 599.11 230.7 L 595.53 234.28 L 592.49 238.86 L 589.16 241.74 L 588.16 243.77 L 586.84 245.56 L 586.84 245.56 L 586.24 244.25 L 582.65 242.02 L 582.19 241.99 L 580.53 241.2 L 578.77 239.75 L 577.47 237.3 L 572.05 234.23 L 568.37 233.28 z"
                
                
                
               />
    </g>
</svg>