<?xml version="1.0" encoding="UTF-8"?>
<svg xmlns="http://www.w3.org/2000/svg" viewBox="0 0 1080 1080">
    <g transform="matrix(1 0 0 1 -166.8 -178.05)">
        <path id="BR-AM" title="Amazonas" 
                fill="#ccc" stroke="#424242" stroke-width="0.5"
                vector-effect="non-scaling-stroke"
                transform=" translate(-139.2, -141.22)"
                d="M 165.82 47.29 L 166.54 48.07 L 167.29 48.41 L 167.9 48.42 L 169.03 48 L 169.66 48.11 L 169.72 49.07 L 170.93 50.24 L 171.9 50.61 L 172.78 50.4 L 174.14 50.51 L 176.09 51.46 L 176.58 52.12 L 175.67 55.44 L 174.96 56.94 L 177.69 60.68 L 179.35 65.44 L 179.54 67.7 L 180.41 68.82 L 180.46 69.27 L 178.84 70.73 L 179.2 72.32 L 179.86 73.9 L 179.09 76.94 L 178.52 77.9 L 178.81 82.88 L 179.69 85.05 L 180.91 85.89 L 181.49 86.79 L 182.62 91.12 L 182.56 91.7 L 181.42 93.02 L 179.58 92.69 L 179.44 93.83 L 184.45 98.25 L 184.97 98.29 L 186.93 99.6 L 188.41 101.25 L 189.45 103.29 L 189.98 103.36 L 191.32 102.94 L 193.68 103.98 L 193.24 101.87 L 193.99 99.58 L 194.24 97.85 L 193.87 96.05 L 194.69 93.08 L 195.71 91.82 L 196.99 91.13 L 199.08 90.42 L 199.63 89.53 L 201.23 89.47 L 204.06 90.4 L 205.93 92.44 L 206.85 94.95 L 208.67 95.18 L 209.92 94.72 L 211.33 93.31 L 213.36 92.76 L 213.78 92.37 L 213.8 91.84 L 212.66 90.43 L 212.43 89.7 L 212.54 89.04 L 213.69 86.4 L 213.76 85.27 L 215.42 82.24 L 217.75 78.98 L 217.72 78.3 L 236.21 78.37 L 236.21 78.37 L 236.61 83.23 L 236.18 84.68 L 236.36 86.95 L 236.6 87.63 L 238.3 88.48 L 238.48 88.89 L 238.13 89.58 L 238.08 91.69 L 239.91 93.68 L 240.27 93.87 L 240.97 93.69 L 242.81 94.92 L 243.36 96.75 L 243.4 97.68 L 243.7 98.13 L 248.34 101.9 L 252.92 104.44 L 253.55 105.34 L 254.9 106.43 L 256.78 107.1 L 259.15 108.41 L 261.41 109.06 L 262.77 109.21 L 264.09 110.03 L 264.17 110.64 L 265.44 111.98 L 268.14 113.42 L 269.24 115.59 L 271.11 116.38 L 271.96 115.77 L 273.34 115.42 L 273.53 115.9 L 273.4 116.68 L 275.21 118.35 L 245.31 182.59 L 244.53 183.9 L 243.08 185.03 L 242.5 186 L 242.47 187.13 L 243.29 189.46 L 243.67 190.03 L 244.74 190.61 L 246.32 192.17 L 246.96 193.43 L 247.11 195.39 L 247.68 195.96 L 247.68 195.96 L 246.5 197.16 L 246.3 197.77 L 246.24 198.53 L 246.58 199.37 L 246.31 200.38 L 245.11 202.2 L 244.25 202.84 L 243.83 203.69 L 243.93 204.54 L 244.59 205.91 L 245.05 207.85 L 243.67 212.07 L 242.49 217.29 L 241.28 218.02 L 193.43 218.34 L 193.43 218.34 L 193.47 217.64 L 193.11 217.26 L 191.72 216.98 L 189.8 218.06 L 189.26 219.8 L 188.58 219.99 L 185.34 218.51 L 184.66 215.63 L 184.04 215.43 L 183.06 215.56 L 182.6 215.35 L 181.35 212.08 L 178.81 211.1 L 177.48 209.83 L 176.68 207.92 L 176.23 207.43 L 174.08 206.3 L 163.29 206.36 L 161.91 208.92 L 160.19 209.42 L 160.28 210.59 L 160.02 210.81 L 157.54 211.34 L 156.35 212.93 L 156.3 213.6 L 157.2 214.3 L 157.37 214.75 L 157.01 215.77 L 156.2 216.92 L 154.14 218.13 L 154.03 219.94 L 154.27 221.4 L 150.4 220.94 L 148.27 221.32 L 147.07 222.39 L 145.28 222.29 L 144.44 221.74 L 143.98 221.72 L 142.23 222.98 L 141.7 223.82 L 141.96 225.57 L 139.42 228.73 L 138.74 228.81 L 138.06 228.28 L 137.42 226.02 L 137.04 225.93 L 135.2 226.95 L 133.9 228.16 L 132.53 228.55 L 131.76 228.42 L 130.68 228.92 L 130.27 229.45 L 130.14 230.17 L 128.92 230.96 L 128.55 230.98 L 126.24 228.65 L 125.52 228.28 L 122.65 228.61 L 118.69 228.35 L 118.85 229.64 L 118.7 230.2 L 117.15 232.01 L 115.23 232.59 L 111.97 235.15 L 111.97 235.15 L 83.46 223.02 L 57.02 208.85 L 44.88 205.71 L 21.22 200.05 L 3.27 192.57 L 3.27 192.57 L 3.2 191.92 L 3.9 189 L 5.12 187.6 L 10.04 184.13 L 12.3 183.89 L 12.77 183.59 L 13.75 182.03 L 13.83 181 L 12.09 176.51 L 12.47 175.32 L 13.65 173.13 L 14.93 171.81 L 15.85 170.56 L 16.27 169.58 L 16.57 167.84 L 16.28 166.52 L 16.95 164.48 L 17.26 162.17 L 17.99 161.42 L 21.65 159.79 L 23.84 158.56 L 24.99 157.52 L 25.43 156.12 L 26.21 155.75 L 27.62 155.64 L 29.27 154.71 L 32.81 151.98 L 35.23 151.55 L 36.74 151.84 L 40.93 150.62 L 42.43 149.85 L 44.25 149.49 L 47.58 149.87 L 48.88 148.28 L 49.51 146.83 L 50.6 146.22 L 52.74 146.42 L 53.38 146.96 L 54.7 146.72 L 55.8 145.98 L 57.51 146.1 L 57.82 146.63 L 57.8 147.81 L 59.41 149.1 L 62.24 149.18 L 62.82 148.78 L 63.28 148 L 63.17 147.61 L 64.34 142.69 L 71.04 105.52 L 72.2 102.6 L 71.21 97.64 L 71.33 97.38 L 70.03 96.33 L 68.55 93.58 L 68.51 93.09 L 69.16 91.7 L 68.64 89.92 L 68.27 89.52 L 66.57 88.93 L 63.54 86.58 L 61.6 84.3 L 61.8 72.79 L 65.69 72.53 L 67.44 71.36 L 70.94 70.44 L 73.62 72.2 L 74.84 72.31 L 76.11 71.88 L 75.62 70.19 L 75.92 68.47 L 74.55 66.37 L 73.98 65.83 L 72.83 65.23 L 71.32 65.76 L 68.53 65.15 L 64.96 65.24 L 64.9 55.34 L 65.86 55.38 L 67.18 54.8 L 69.46 54.2 L 72.3 55.07 L 91.33 55.13 L 90.87 54.47 L 90.08 54.33 L 89.7 53.13 L 90.65 51.2 L 92.08 51.6 L 92.69 53.12 L 93.56 54.44 L 94.22 54.79 L 95.05 54.8 L 96.66 54.19 L 98.6 52.1 L 98.92 51.26 L 100.18 50.02 L 102.73 48.63 L 104.02 49.09 L 105.19 51.67 L 106.81 53.66 L 107.55 54.96 L 108.21 56.74 L 108.44 58.29 L 107.95 61.92 L 108.15 63.68 L 111.35 62.93 L 119.66 69.99 L 120.45 70.27 L 122.95 70.48 L 125.25 69.48 L 126.95 67.78 L 129.06 66.62 L 131.25 66.51 L 131.81 66.8 L 132.58 67.88 L 132.56 68.85 L 131.45 70.55 L 131.82 71.53 L 132.4 71.8 L 133.73 71.08 L 134.29 70.17 L 134.52 68.88 L 135.52 67.72 L 135.99 67.49 L 136.99 67.67 L 137.54 67.49 L 137.95 66.83 L 138.41 64.52 L 138.92 64.15 L 140.43 63.79 L 143.36 62.02 L 144.33 62.57 L 145.26 62.28 L 146.86 61.24 L 147.88 59.63 L 149.99 58.42 L 152.02 58.97 L 154.38 57.32 L 154.93 56.5 L 155.37 53.84 L 155.34 52.55 L 156.11 51.63 L 157.14 51.21 L 158.88 51.19 L 160.22 50.8 L 162.28 49.2 L 163.24 48.83 L 165.52 48.53 z"
                
                
                
               />
    </g>
</svg>