<?xml version="1.0" encoding="UTF-8"?>
<svg xmlns="http://www.w3.org/2000/svg" viewBox="0 0 1080 1080">
    <g transform="matrix(1 0 0 1 32.29 -262.31)">
        <path id="BR-AP" title="Amapá" 
                fill="#ccc" stroke="#424242" stroke-width="0.5"
                vector-effect="non-scaling-stroke"
                transform=" translate(-338.29, -56.97)"
                d="M 344.98 99.7 L 344.04 99.64 L 343.27000000000004 99.98 L 341.97 100.10000000000001 L 339.18 99.42 L 337.73 98.39 L 337.3 96.89 L 335.43 95.5 L 335.32 94.2 L 335.53 93.51 L 335.21999999999997 91.93 L 334.89 91.46000000000001 L 333.94 91.27000000000001 L 333.53 90.33000000000001 L 333.60999999999996 87.9 L 330.67999999999995 84.62 L 329.9 84.98 L 329.08 84.79 L 327.58 81.31 L 327.71 79.73 L 327.12 77.92 L 326.5 77.36 L 325.83 75.85 L 325.64 73.74 L 326.07 70.6 L 325.9 70.27 L 323.33 69.53999999999999 L 321.31 67.27999999999999 L 320.55 64.44999999999999 L 320.74 63.72999999999999 L 321.42 63.49999999999999 L 320.93 62.31999999999999 L 320.25 62.349999999999994 L 317.41 59.69 L 316.47 59.83 L 316.09000000000003 60.25 L 314.76000000000005 60.39 L 313.9200000000001 60.12 L 313.12000000000006 59.14 L 311.9800000000001 58.3 L 310.7900000000001 58.18 L 310.30000000000007 56.9 L 309.63000000000005 56.1 L 307.70000000000005 55.050000000000004 L 306.41 54.56 L 303.02000000000004 54.190000000000005 L 301.94000000000005 54.480000000000004 L 300.77000000000004 54.46 L 300.46000000000004 53.92 L 300.22 52.480000000000004 L 300.47 47.940000000000005 L 301.09000000000003 46.64000000000001 L 300.72 44.34000000000001 L 300.1 43.77000000000001 L 300.1 43.77000000000001 L 300.45000000000005 43.56000000000001 L 301.44000000000005 43.86000000000001 L 301.43000000000006 44.67000000000001 L 301.14000000000004 44.85000000000001 L 301.48 45.82000000000001 L 302.95000000000005 45.760000000000005 L 303.77000000000004 45.99 L 304.12000000000006 46.89 L 304.96000000000004 47.6 L 307.21000000000004 48.38 L 310.50000000000006 49.13 L 313.26000000000005 47.35 L 313.61000000000007 46.59 L 315.3400000000001 45.42 L 316.1700000000001 45.13 L 316.86000000000007 46.07 L 319.57000000000005 47.01 L 320.65000000000003 46.89 L 322.37000000000006 45.88 L 322.49000000000007 45.46 L 322.81000000000006 45.49 L 324.27000000000004 46.79 L 324.07000000000005 47.66 L 326.44000000000005 47.489999999999995 L 326.95000000000005 47.989999999999995 L 327.90000000000003 48.16 L 328.52000000000004 48.15 L 329.43000000000006 47.67 L 331.1000000000001 46.17 L 332.88000000000005 45.07 L 334.63000000000005 42.77 L 335.00000000000006 41.77 L 334.80000000000007 41.230000000000004 L 337.93000000000006 34.730000000000004 L 338.0400000000001 32.910000000000004 L 339.1500000000001 31.610000000000003 L 339.8800000000001 31.42 L 343.48000000000013 25.630000000000003 L 343.71000000000015 24.480000000000004 L 344.5500000000001 23.280000000000005 L 346.34000000000015 21.730000000000004 L 346.97000000000014 20.070000000000004 L 349.08000000000015 18.930000000000003 L 349.5500000000002 18.01 L 350.5900000000002 17.430000000000003 L 351.1500000000002 18.890000000000004 L 352.0300000000002 20.250000000000004 L 350.3600000000002 15.450000000000003 L 350.2900000000002 14.160000000000004 L 350.4700000000002 13.830000000000004 L 353.8400000000002 16.250000000000004 L 354.9800000000002 17.460000000000004 L 355.8900000000002 18.680000000000003 L 356.4100000000002 19.870000000000005 L 356.44000000000017 21.450000000000003 L 356.88000000000017 21.76 L 357.20000000000016 21.28 L 357.58000000000015 21.18 L 357.79000000000013 21.58 L 358.0000000000001 29.47 L 358.66000000000014 33.339999999999996 L 361.3700000000001 39.38999999999999 L 364.03000000000014 48.32999999999999 L 367.35000000000014 53.32999999999999 L 368.3600000000001 53.67999999999999 L 371.6300000000001 53.599999999999994 L 374.4100000000001 54.53999999999999 L 375.7000000000001 55.38999999999999 L 376.4700000000001 58.03999999999999 L 376.31000000000006 61.36999999999999 L 375.02000000000004 62.32999999999999 L 373.29 62.75999999999999 L 372.91 63.08999999999999 L 374.70000000000005 62.93999999999999 L 375.74000000000007 62.51999999999999 L 376.02000000000004 62.749999999999986 L 376.14000000000004 63.33999999999999 L 375.97 64.07 L 370.94000000000005 68.13 L 369.77000000000004 70.22999999999999 L 367.62000000000006 71.63999999999999 L 365.68000000000006 75.35999999999999 L 362.77000000000004 78.85999999999999 L 362.07000000000005 79.31999999999998 L 361.13000000000005 79.22999999999998 L 359.68000000000006 79.74999999999997 L 357.6000000000001 82.72999999999998 L 357.6000000000001 82.72999999999998 L 356.2600000000001 82.79999999999997 L 355.5100000000001 83.69999999999997 L 355.5100000000001 83.69999999999997 L 354.0400000000001 85.37999999999998 L 353.07000000000005 87.59999999999998 L 351.95000000000005 89.46999999999998 L 351.11000000000007 90.11999999999999 L 348.1000000000001 93.57 L 347.74000000000007 95.97 L 347.9100000000001 97.77 L 345.9600000000001 99.58 L 344.98 99.7 z M 368.34 52.71 L 367.89 52.38 L 366.78999999999996 50.52 L 366.85999999999996 49.64 L 367.09 49.230000000000004 L 368.75 48.78 L 369.18 49.17 L 370.01 51.440000000000005 L 369.02 52.540000000000006 L 368.34 52.71 z M 370.83 70.32 L 370.43 70.07 L 370.35 69.36 L 371.46000000000004 68.26 L 372.34000000000003 68.11 L 373.59000000000003 68.35 L 374.05 68.24 L 374.49 67.6 L 374.54 68.19 L 373.57 69.63 L 372.58 70.13 L 370.83 70.32 z M 374.27 67.45 L 373.49 67.22 L 373.49 66.66 L 374.21000000000004 65.61999999999999 L 375.46000000000004 65.52 L 375.64000000000004 65.86999999999999 L 375.54 66.38 L 374.27 67.45 z M 367.08 49.03 L 366.32 48.53 L 366.58 47.7 L 367.46 47.53 L 368.32 47.85 L 368.33 48.58 L 367.08 49.03 z"
                
                
                
               />
    </g>
</svg>