<?xml version="1.0" encoding="UTF-8"?>
<svg xmlns="http://www.w3.org/2000/svg" viewBox="0 0 1080 1080">
    <g transform="matrix(1 0 0 1 193.52 -26.39)">
        <path id="BR-BA" title="Bahia" 
                fill="#ccc" stroke="#424242" stroke-width="0.5"
                vector-effect="non-scaling-stroke"
                transform=" translate(-499.52, -292.87)"
                d="M 527.5 365.33 L 527.14 364.5 L 527.8199999999999 363.15 L 527.81 362.62 L 527.28 361.58 L 523.15 358.53 L 523 358.02 L 523.22 356.51 L 522.65 355.28 L 522 355.52 L 521.8 355.96999999999997 L 521.4599999999999 356.15 L 521.2399999999999 355.9 L 521.7699999999999 351.5 L 522.5899999999999 348.2 L 523.41 347.32 L 525.88 347.56 L 526.9 346.85 L 526.9 346.43 L 526.34 345.41 L 526.5 342.76000000000005 L 531.46 338.54 L 532.9300000000001 335.46000000000004 L 532.5100000000001 334.29 L 531.7300000000001 333.27000000000004 L 530.8400000000001 333.21000000000004 L 530.1100000000001 332.83000000000004 L 527.2800000000001 330.36 L 525.1600000000001 330.38 L 522.97 329.78 L 520.7 328.7 L 517.97 328.14 L 515.99 328 L 514.67 328.99 L 513.1999999999999 329.49 L 510.5899999999999 329.04 L 510.0199999999999 329.25 L 509.5799999999999 325.29 L 503.05999999999995 319.09000000000003 L 502.67999999999995 318.91 L 498.28999999999996 320.14000000000004 L 496.76 318.90000000000003 L 496.25 319.11 L 495.32 318.89 L 492.78 317.66999999999996 L 490.60999999999996 316.04999999999995 L 489.62999999999994 316.22999999999996 L 485.2799999999999 312.59999999999997 L 484.1799999999999 312.05999999999995 L 481.4499999999999 311.30999999999995 L 479.6799999999999 311.55999999999995 L 477.7999999999999 312.4599999999999 L 476.9899999999999 313.5799999999999 L 476.3499999999999 313.75999999999993 L 471.0199999999999 312.2899999999999 L 470.4099999999999 311.7999999999999 L 470.1499999999999 310.2999999999999 L 470.2899999999999 309.4099999999999 L 471.5799999999999 306.6699999999999 L 470.7199999999999 306.2099999999999 L 468.43999999999994 305.68999999999994 L 466.25999999999993 305.6499999999999 L 465.05999999999995 305.1499999999999 L 463.2699999999999 305.06999999999994 L 459.43999999999994 306.6499999999999 L 455.17999999999995 309.6799999999999 L 454.53999999999996 310.7899999999999 L 451.16999999999996 312.6599999999999 L 449.15 313.0599999999999 L 448.2 314.2399999999999 L 446.39 315.7899999999999 L 444.96 316.3099999999999 L 443.96 316.1599999999999 L 442.10999999999996 318.7399999999999 L 441.06999999999994 319.5099999999999 L 438.93999999999994 319.1299999999999 L 438.2199999999999 319.2599999999999 L 437.5299999999999 320.2599999999999 L 436.18999999999994 321.1799999999999 L 435.78999999999996 320.9399999999999 L 437.21999999999997 317.5099999999999 L 436.71 315.09999999999985 L 436.71 315.09999999999985 L 438.19 313.1299999999998 L 438.44 312.35999999999984 L 438.21 311.08999999999986 L 437.53999999999996 309.36999999999983 L 437.64 308.6999999999998 L 438.34999999999997 307.2799999999998 L 438.29999999999995 306.8199999999998 L 435.09 304.1999999999998 L 433.4 300.73999999999984 L 432.78 297.21999999999986 L 432.83 295.66999999999985 L 434.03 291.83999999999986 L 435.61999999999995 290.8099999999999 L 435.84999999999997 290.4299999999999 L 435.90999999999997 289.4899999999999 L 434.28 288.6499999999999 L 434.16999999999996 288.31999999999994 L 434.65 285.79999999999995 L 436.08 284.73999999999995 L 436.06 284.36999999999995 L 433.34 281.90999999999997 L 433.34 281.90999999999997 L 433.29999999999995 280.97999999999996 L 434.65999999999997 278.59999999999997 L 434.61999999999995 277.53 L 434.44999999999993 277.10999999999996 L 432.98999999999995 276.61999999999995 L 432.04999999999995 275.96999999999997 L 431.69999999999993 274.71 L 431.75999999999993 271.78999999999996 L 431.94999999999993 270.93999999999994 L 433.8999999999999 269.2699999999999 L 435.0399999999999 268.8499999999999 L 435.9999999999999 268.1299999999999 L 435.70999999999987 267.4999999999999 L 435.1299999999999 266.9799999999999 L 434.20999999999987 266.6899999999999 L 433.1799999999999 266.8699999999999 L 432.82999999999987 266.5399999999999 L 432.7399999999999 266.0399999999999 L 433.1599999999999 265.0799999999999 L 435.19999999999993 264.25999999999993 L 435.75999999999993 263.80999999999995 L 435.7199999999999 263.04999999999995 L 433.8399999999999 262.06999999999994 L 430.25999999999993 261.3999999999999 L 428.3999999999999 259.43999999999994 L 428.1699999999999 258.5199999999999 L 428.6699999999999 257.3599999999999 L 429.6799999999999 256.6299999999999 L 431.1999999999999 253.1499999999999 L 432.09999999999985 252.53999999999988 L 433.10999999999984 252.26999999999987 L 433.45999999999987 251.88999999999987 L 432.16999999999985 250.08999999999986 L 432.35999999999984 249.71999999999986 L 435.5699999999998 247.09999999999985 L 439.3899999999998 245.07999999999984 L 439.9499999999998 244.60999999999984 L 440.16999999999985 243.62999999999985 L 440.85999999999984 242.97999999999985 L 440.85999999999984 242.97999999999985 L 443.1899999999998 242.95999999999984 L 444.6299999999998 244.29999999999984 L 445.28999999999985 245.33999999999983 L 445.8199999999998 247.54999999999984 L 447.5799999999998 250.03999999999985 L 451.7599999999998 251.89999999999986 L 453.55999999999983 251.37999999999985 L 455.66999999999985 251.55999999999986 L 455.99999999999983 251.34999999999985 L 456.74999999999983 249.89999999999986 L 457.8899999999998 249.52999999999986 L 458.55999999999983 248.65999999999985 L 459.72999999999985 247.76999999999987 L 461.9399999999998 247.01999999999987 L 463.2699999999998 247.18999999999986 L 464.74999999999983 247.71999999999986 L 466.09999999999985 247.29999999999987 L 469.0699999999999 244.87999999999988 L 472.01999999999987 239.82999999999987 L 472.7399999999999 238.96999999999986 L 472.9799999999999 238.04999999999987 L 473.2799999999999 235.48999999999987 L 473.1599999999999 234.32999999999987 L 470.9199999999999 229.89999999999986 L 470.9699999999999 228.96999999999986 L 474.2099999999999 227.31999999999985 L 476.1599999999999 227.29999999999984 L 477.6599999999999 227.75999999999985 L 478.06999999999994 228.68999999999986 L 478.38999999999993 228.86999999999986 L 480.50999999999993 228.43999999999986 L 481.8999999999999 227.89999999999986 L 483.2299999999999 228.27999999999986 L 484.9399999999999 229.26999999999987 L 484.8099999999999 229.91999999999987 L 484.9999999999999 230.20999999999987 L 485.8199999999999 230.48999999999987 L 488.8199999999999 230.37999999999985 L 490.2899999999999 229.73999999999987 L 491.9899999999999 229.63999999999987 L 492.8099999999999 228.41999999999987 L 494.3199999999999 227.07999999999987 L 497.0499999999999 226.73999999999987 L 497.8199999999999 226.37999999999985 L 498.6299999999999 225.39999999999986 L 500.7999999999999 225.40999999999985 L 501.4199999999999 226.03999999999985 L 501.7299999999999 226.08999999999986 L 503.5899999999999 224.27999999999986 L 503.4899999999999 221.87999999999985 L 505.4799999999999 221.49999999999986 L 506.2699999999999 221.67999999999986 L 507.31999999999994 221.01999999999987 L 508.81999999999994 218.70999999999987 L 509.2799999999999 217.55999999999986 L 509.2799999999999 217.55999999999986 L 510.1699999999999 217.95999999999987 L 511.3299999999999 217.68999999999986 L 513.53 217.97999999999985 L 516.35 219.36999999999983 L 516.7900000000001 219.87999999999982 L 516.7300000000001 222.60999999999981 L 517.4500000000002 224.5499999999998 L 519.6600000000002 225.4599999999998 L 519.9300000000002 227.4599999999998 L 519.0100000000002 229.13999999999982 L 520.8400000000003 229.75999999999982 L 521.8000000000003 229.53999999999982 L 522.6200000000003 228.61999999999983 L 525.4900000000004 227.73999999999984 L 526.2600000000003 224.15999999999983 L 526.7600000000003 223.28999999999982 L 527.5100000000003 223.12999999999982 L 528.2900000000003 223.65999999999983 L 528.9200000000003 223.70999999999984 L 531.3100000000003 222.68999999999983 L 532.4100000000003 221.44999999999982 L 532.5800000000003 220.85999999999981 L 532.3300000000003 219.4999999999998 L 532.6200000000002 219.2499999999998 L 534.8600000000002 218.7999999999998 L 535.6300000000002 216.7499999999998 L 537.2800000000002 216.3099999999998 L 539.8100000000002 214.8499999999998 L 540.4000000000002 214.7499999999998 L 541.8900000000002 215.3099999999998 L 542.7200000000003 216.7499999999998 L 544.0800000000003 217.5599999999998 L 546.4400000000003 218.3399999999998 L 549.4300000000003 218.7399999999998 L 551.0100000000003 219.88999999999982 L 551.5500000000003 221.53999999999982 L 551.9400000000003 221.80999999999983 L 552.3700000000002 221.65999999999983 L 552.6600000000002 219.90999999999983 L 553.0900000000001 219.46999999999983 L 554.0900000000001 219.45999999999984 L 554.5400000000002 219.77999999999983 L 554.5600000000002 220.40999999999983 L 553.9400000000002 221.28999999999982 L 554.3900000000002 222.11999999999983 L 554.8900000000002 222.48999999999984 L 556.9900000000002 223.34999999999985 L 557.0100000000002 224.28999999999985 L 558.2300000000002 227.33999999999986 L 558.2300000000002 227.33999999999986 L 558.7700000000002 228.73999999999987 L 559.7900000000002 229.02999999999986 L 560.2400000000002 228.93999999999986 L 561.6700000000002 229.72999999999985 L 561.8700000000002 230.44999999999985 L 561.8700000000002 230.44999999999985 L 561.2000000000003 231.60999999999984 L 561.4100000000003 233.74999999999983 L 562.6900000000003 236.24999999999983 L 564.6800000000003 238.19999999999982 L 565.4300000000003 239.34999999999982 L 565.3500000000003 242.46999999999983 L 564.6900000000003 244.08999999999983 L 564.6000000000003 244.96999999999983 L 565.3600000000002 247.71999999999983 L 565.0600000000003 248.29999999999984 L 564.3700000000002 248.84999999999985 L 561.8200000000003 249.84999999999985 L 560.6900000000003 249.09999999999985 L 558.9800000000002 249.08999999999986 L 558.6600000000002 249.38999999999987 L 558.0700000000002 250.96999999999989 L 558.0900000000001 251.7399999999999 L 559.0400000000002 253.3399999999999 L 560.1400000000002 253.9999999999999 L 560.6600000000002 255.4899999999999 L 562.0900000000001 256.9999999999999 L 562.2400000000001 257.3899999999999 L 562.1100000000001 258.8099999999999 L 561.7700000000001 259.1999999999999 L 561.8900000000001 259.6199999999999 L 562.4800000000001 260.1399999999999 L 564.4100000000001 261.0599999999999 L 564.8900000000001 261.76999999999987 L 565.4300000000001 262.10999999999984 L 566.98 262.74999999999983 L 569.87 261.86999999999983 L 569.87 261.86999999999983 L 570.51 261.84999999999985 L 570.87 262.2599999999999 L 566.79 271.08999999999986 L 562.9599999999999 276.27999999999986 L 561.93 278.60999999999984 L 556.9 284.34999999999985 L 554.4499999999999 285.60999999999984 L 553.5799999999999 285.59999999999985 L 553.8799999999999 284.16999999999985 L 554.2499999999999 284.01999999999987 L 554.3899999999999 282.91999999999985 L 553.9399999999998 280.98999999999984 L 552.0699999999998 280.73999999999984 L 551.6399999999999 279.4399999999998 L 550.9599999999999 278.6899999999998 L 550.5899999999999 279.28999999999985 L 550.1299999999999 281.61999999999983 L 549.6299999999999 282.48999999999984 L 549.0799999999999 282.86999999999983 L 548.52 282.5799999999998 L 548.03 280.8399999999998 L 548.14 280.5199999999998 L 548.4499999999999 280.3899999999998 L 548.42 279.99999999999983 L 547.55 281.28999999999985 L 548.4799999999999 282.97999999999985 L 548.9399999999999 283.20999999999987 L 549.31 283.0599999999999 L 550.4599999999999 283.3199999999999 L 549.9999999999999 285.1299999999999 L 548.7899999999998 286.27999999999986 L 548.5399999999998 288.09999999999985 L 547.2899999999998 289.0699999999999 L 546.9399999999998 289.7399999999999 L 546.7399999999998 290.57999999999987 L 546.9199999999997 291.4299999999999 L 545.5699999999997 291.0399999999999 L 545.3599999999997 291.4299999999999 L 544.9999999999997 293.9499999999999 L 545.3599999999997 293.22999999999985 L 546.1099999999997 293.4399999999998 L 546.3499999999997 293.97999999999985 L 546.1199999999997 294.3899999999999 L 546.1799999999996 295.0099999999999 L 546.4799999999996 295.3099999999999 L 546.8099999999996 296.3099999999999 L 545.7699999999996 298.8199999999999 L 546.3399999999997 302.2599999999999 L 545.7899999999997 302.7499999999999 L 545.2199999999997 302.52999999999986 L 545.0799999999997 303.65999999999985 L 545.6699999999997 304.11999999999983 L 546.8799999999998 302.3999999999998 L 546.4099999999997 300.1899999999998 L 547.2299999999998 299.5799999999998 L 547.4799999999998 300.11999999999983 L 547.4199999999998 301.8799999999998 L 546.4599999999998 304.48999999999984 L 545.7199999999998 309.91999999999985 L 545.2099999999998 311.72999999999985 L 545.4099999999999 314.1999999999999 L 546.1899999999998 317.0499999999999 L 546.3799999999999 321.5899999999999 L 547.2499999999999 327.99999999999994 L 548.2399999999999 331.41999999999996 L 546.0299999999999 338.08 L 544.6799999999998 344.72999999999996 L 544.2099999999998 345.73999999999995 L 544.0499999999998 348.59999999999997 L 542.9899999999999 352.32 L 542.8999999999999 354.65 L 543.2899999999998 359.07 L 544.1799999999998 360.78 L 541.9399999999998 363.76 L 540.1299999999999 364.43 L 539.1899999999998 365.07 L 536.4699999999998 368.96 L 535.9 371 L 535.9 371 L 527.81 365.86 L 527.5 365.33 z M 549.78 287.33 L 549.55 286.13 L 550.29 285.71999999999997 L 551.3499999999999 284.67999999999995 L 551.5099999999999 284.03999999999996 L 551.1399999999999 283.30999999999995 L 551.8999999999999 283.44999999999993 L 552.7199999999999 284.49999999999994 L 552.67 285.0299999999999 L 549.78 287.33 z M 547.25 294.18 L 546.62 294.15000000000003 L 546.63 293.48 L 546.89 293.12 L 546.09 292.9 L 545.6700000000001 292.5 L 545.8000000000001 291.43 L 547.6700000000001 291.28000000000003 L 547.83 291.48 L 547.94 292.61 L 547.25 294.18 z"
                
                
                
               />
    </g>
</svg>