<?xml version="1.0" encoding="UTF-8"?>
<svg xmlns="http://www.w3.org/2000/svg" viewBox="0 0 1080 1080">
    <g transform="matrix(1 0 0 1 235.04 -154.64)">
        <path id="BR-CE" title="Ceará" 
                fill="#ccc" stroke="#424242" stroke-width="0.5"
                vector-effect="non-scaling-stroke"
                transform=" translate(-541.04, -164.62)"
                d="M 573.79 156.85 L 568.9 158.44 L 566.29 160.45 L 562.99 167.14 L 562.15 168.26 L 561.28 168.83 L 560.63 170.5 L 560.78 171.24 L 559.38 173.68 L 557.92 175.19 L 557.35 176.29 L 556.32 176.55 L 555.54 176.04 L 555.03 176.11 L 554.19 176.99 L 552.78 179.24 L 552.44 181.21 L 553.08 181.38 L 553.74 181 L 553.74 181 L 553.66 181.54 L 552.82 182.69 L 551.79 185.69 L 552.31 187 L 551.65 188.31 L 550.56 188.94 L 550.39 189.32 L 550.27 190.25 L 550.51 190.66 L 551.09 190.95 L 551.44 191.67 L 551.42 193.33 L 552.66 194.22 L 553.35 194.3 L 553.69 195.49 L 552.08 198.98 L 550.89 200.1 L 551.06 200.35 L 551.06 200.35 L 549.47 200.84 L 548.4 201.67 L 546.86 203.96 L 545.21 204.01 L 544.58 202.37 L 543.8 201.8 L 542.44 201.32 L 541.43 200.25 L 540.97 199.26 L 539.14 198.43 L 536.29 196.53 L 533.21 196.11 L 531.92 196.21 L 529.78 197.01 L 528.15 197.2 L 527.26 196.96 L 522.33 196.76 L 522.33 196.76 L 522.39 195.44 L 521.71 194.76 L 521.63 193.79 L 522.77 190.68 L 524.27 188.43 L 524.28 187.74 L 523.51 186.58 L 520.95 186.11 L 519.64 185.46 L 518.63 182.79 L 517.58 177.59 L 516.82 175.02 L 517.06 174.57 L 516.12 166.41 L 516.01 166.03 L 515.09 165.34 L 515.89 164.76 L 516.48 163.18 L 515.88 160.19 L 514.88 158.18 L 515.36 156.58 L 514.57 152.71 L 515.31 151.35 L 515.33 150.59 L 513.97 149 L 513.53 147.27 L 510.38 140.85 L 508.58 136.13 L 508.29 134.84 L 508.47 133.38 L 510.05 131.41 L 511.14 129.56 L 511.25 128.76 L 511.25 128.76 L 511.44 128.62 L 511.4 128 L 511 127.34 L 511.65 126.53 L 518.39 126.31 L 521.28 125.88 L 523.35 125.22 L 530.75 126.01 L 532.87 127.13 L 534.81 128.63 L 538.93 130.81 L 540.39 131.33 L 545.21 134.33 L 546.42 134.53 L 548.64 136.82 L 551.63 138.93 L 554.2 139.65 L 556.64 142.56 L 557.86 143.17 L 560.82 146.98 L 564.98 150.06 L 566.44 152.06 L 567.48 153.05 L 568.98 153.87 L 570.13 153.9 L 572.5 154.82 L 573.29 155.49 z"
                
                
                
               />
    </g>
</svg>