<?xml version="1.0" encoding="UTF-8"?>
<svg xmlns="http://www.w3.org/2000/svg" viewBox="0 0 1080 1080">
    <g transform="matrix(1 0 0 1 212.62 72.56)">
        <path id="BR-ES" title="Espírito Santo" 
                fill="#ccc" stroke="#424242" stroke-width="0.5"
                vector-effect="non-scaling-stroke"
                transform=" translate(-518.62, -391.82)"
                d="M 501.63 411.37 L 501.34 411.23 L 501.78 408.89 L 502.35 407.59 L 501.76 404.47 L 501.92 404.05 L 503.64 401.99 L 508.79 402.02 L 509.34 401.7 L 510.31 398.46 L 511.42 397.19 L 512.3 394.9 L 512.54 393.18 L 512.8 392.74 L 514.04 391.88 L 515.75 389.79 L 516.29 386.82 L 516 384.39 L 514.73 381.58 L 513.63 380.31 L 513.11 380.22 L 512.66 380.51 L 511.9 380.23 L 511.41 379.52 L 511.84 378.97 L 513.32 378.88 L 514.12 379.23 L 515.09 379.26 L 516.04 379.02 L 516.36 378.6 L 516.19 376.88 L 514.88 376.53 L 514.67 376.12 L 514.97 374.58 L 515 372.66 L 514.48 372 L 513.15 371.33 L 512.85 370.63 L 514.02 368.7 L 516.19 367.39 L 516.5 367.37 L 517.55 368.11 L 518.68 368.22 L 518.7 367.41 L 517.03 365.14 L 518.37 365.27 L 520.55 364.98 L 521.39 364.37 L 522.47 364.05 L 524.05 363.97 L 526.59 364.78 L 527.5 365.33 L 527.5 365.33 L 527.5 365.33 L 527.5 365.33 L 527.8 365.86 L 535.9 371 L 535.9 371 L 534.97 374.35 L 534.66 377.21 L 534.78 380.8 L 535.5 386.95 L 535.19 389.42 L 533.7 392.6 L 530.95 393.99 L 530.4 394.59 L 528.73 397.92 L 527.75 401.72 L 526.98 403.19 L 526.15 402.51 L 525.27 402.38 L 524.98 403.66 L 526.33 404.18 L 524.39 408.42 L 520.94 412.26 L 520.7 411.99 L 518.84 412.65 L 518.04 413.88 L 517.98 415.27 L 517.56 416.52 L 515.97 418.54 L 515.68 419.67 L 515.68 419.67 L 514.06 418.61 L 511.07 418.98 L 506.73 417.97 L 504.23 416.84 L 503.56 412.13 z"
                
                
                
               />
    </g>
</svg>