<?xml version="1.0" encoding="UTF-8"?>
<svg xmlns="http://www.w3.org/2000/svg" viewBox="0 0 1080 1080">
    <g transform="matrix(1 0 0 1 75.37 14.13)">
        <path id="BR-GO" title="Goiás" 
                fill="#ccc" stroke="#424242" stroke-width="0.5"
                vector-effect="non-scaling-stroke"
                transform=" translate(-381.37, -333.38)"
                d="M 416.71 333.87 L 415.84 332.86 L 416.05 330.42 L 416.64 329.23 L 416.58 327.02 L 414.75 325.04 L 402.8 325.03 L 402.42 328.76 L 401.5 330.59 L 402.02 333.85 L 416.71 333.87 L 416.71 333.87 L 416.71 333.87 L 416.71 333.87 L 416.18 335.39 L 416.49 336.96 L 415.81 338.55 L 414.77 339.8 L 414.36 341.27 L 415.21 342.48 L 416.06 342.82 L 417.48 343.85 L 419.13 348.41 L 419.13 349.01 L 416.81 351.72 L 413.57 354.73 L 413.14 356.87 L 414.23 357.98 L 415.13 357.51 L 416.71 358.08 L 417.18 358.69 L 417.36 359.69 L 417.19 360.4 L 416.46 361.3 L 415.95 363.19 L 417.14 366.65 L 414.05 368.71 L 412.89 368.91 L 412.03 369.81 L 411.55 370.93 L 406.66 373.67 L 405.96 372.9 L 401.61 371.04 L 401.06 371.52 L 400.48 371.61 L 398.73 371.62 L 397.25 371.34 L 393.39 371.5 L 391.38 370.61 L 387.25 373.25 L 384.34 376.17 L 384.01 376.17 L 382.7 374.75 L 381.18 374.45 L 377.99 376.09 L 374.28 375.47 L 371.8 376.43 L 369.57 376.97 L 368.16 379.07 L 366.95 381.53 L 367.01 382.53 L 366.17 383.83 L 365.35 384.11 L 364.51 383.95 L 364.06 384.09 L 363.12 384.83 L 361.48 386.93 L 360.91 388.83 L 361.47 389.44 L 361.46 389.78 L 361.1 390.01 L 360.24 389.55 L 360.24 389.55 L 360 389.1 L 357.34 386.86 L 354.19 386.25 L 352.57 384.7 L 350.67 384.27 L 349.18 384.23 L 345.83 382.89 L 345.15 382.04 L 342.08 380.48 L 341.41 379.87 L 339.97 379.16 L 338.83 378.99 L 336.13 377.31 L 333.35 377.47 L 329.55 376.77 L 329.42 376.44 L 329.68 375.6 L 330.25 374.43 L 331.56 372.67 L 331.48 372.25 L 329.23 371.35 L 328.09 372.02 L 327.43 371.83 L 327.15 371.42 L 326.92 370.31 L 327.18 367.73 L 326.99 365.96 L 326.99 365.96 L 326.04 363.76 L 325.86 360.33 L 324.45 358.14 L 324.29 357.43 L 324.69 354.02 L 327.24 350.17 L 327.62 347.26 L 328.32 346.49 L 330.34 345.65 L 332.26 343.88 L 333.51 341.86 L 333.84 339.91 L 334.34 338.9 L 335.62 337.86 L 336.44 336.43 L 336.52 334.89 L 338.27 333.92 L 339.67 331.3 L 342.32 331.17 L 345.04 330.31 L 345.36 330.03 L 347.34 325.84 L 348.05 324.88 L 348.69 320.78 L 349.07 320.04 L 350.99 318.1 L 352.64 317.09 L 353.71 316.83 L 354.94 317.51 L 356.15 316.78 L 357.54 315.35 L 358.38 312.42 L 359.55 309.55 L 359.54 308.75 L 359.06 307.61 L 359.64 304.87 L 361.24 301.78 L 361.12 296.6 L 362.33 295.82 L 363.36 293.19 L 365.36 290.02 L 365.75 288.95 L 365.59 286.23 L 365.94 285.33 L 366.91 284.47 L 367.18 283.34 L 367.1 282.71 L 367.1 282.71 L 367.44 282.26 L 367.64 280.38 L 368.3 279.15 L 370.11 277.06 L 370.67 276.76 L 370.64 278.47 L 369.42 280.35 L 368.9 282.69 L 371.3 283.09 L 373.5 284.12 L 377.43 284.52 L 380.52 286.23 L 384.59 287.66 L 385.22 287.43 L 386.85 281.49 L 388.32 279.1 L 389.5 278.13 L 390.65 279.44 L 391.69 281.32 L 392.8 285.03 L 393.41 288.13 L 394.55 288.18 L 395.3 287.43 L 395.6 286.43 L 396.16 285.89 L 398.92 286.23 L 403.45 285.7 L 403.67 286.44 L 403.11 288 L 406.24 289.47 L 409.59 290.15 L 410.28 290.07 L 410.79 286.77 L 411.34 286.8 L 412.85 289.42 L 413.31 289.66 L 415.09 288.76 L 417.61 286.68 L 422.14 285.68 L 423.69 285.68 L 426.25 284.58 L 427.99 283.24 L 433.35 281.82 L 433.35 281.82 L 436.07 284.28 L 436.09 284.66 L 434.66 285.72 L 434.18 288.24 L 434.28 288.57 L 435.91 289.41 L 435.85 290.35 L 435.62 290.73 L 434.03 291.76 L 432.84 295.59 L 432.79 297.14 L 433.41 300.66 L 435.11 304.12 L 438.32 306.74 L 438.37 307.21 L 437.65 308.63 L 437.55 309.3 L 438.22 311.02 L 438.45 312.3 L 438.2 313.07 L 436.72 315.04 L 436.72 315.04 L 435.72 316.05 L 432.49 315.71 L 431.59 313.95 L 429.17 312.47 L 428 313.96 L 428.58 317.73 L 428.01 318.27 L 427.61 318.4 L 424.83 317.26 L 423.66 317.49 L 423.29 317.77 L 422.57 320.95 L 423.29 321.05 L 423.78 322.21 L 423.21 323.15 L 422.48 323.85 L 422.52 325.75 L 422.94 326.36 L 423.47 326.55 L 424.16 330.81 L 423.63 331.34 L 420.27 332.24 L 417.98 333.75 z"
                
                
                
               />
    </g>
</svg>