<?xml version="1.0" encoding="UTF-8"?>
<svg xmlns="http://www.w3.org/2000/svg" viewBox="0 0 1080 1080">
    <g transform="matrix(1 0 0 1 142.22 -148.63)">
        <path id="BR-MA" title="Maranhão" 
                fill="#ccc" stroke="#424242" stroke-width="0.5"
                vector-effect="non-scaling-stroke"
                transform=" translate(-448.22, -170.64)"
                d="M 458.57 128.92 L 458.53 129.25 L 456.48999999999995 131.4 L 456.05999999999995 131.57 L 456.0199999999999 133.01 L 457.98999999999995 131.31 L 458.66999999999996 130.1 L 460.78999999999996 128.51999999999998 L 461.67999999999995 127.37999999999998 L 462.7099999999999 121.04999999999998 L 463.8599999999999 120.34999999999998 L 464.9699999999999 120.22999999999998 L 466.63999999999993 119.30999999999997 L 467.2899999999999 119.17999999999998 L 467.7499999999999 119.29999999999998 L 467.82999999999987 120.92999999999998 L 467.6299999999999 121.37999999999998 L 466.20999999999987 123.24999999999999 L 462.9999999999999 124.99999999999999 L 462.9699999999999 125.71999999999998 L 463.69999999999993 125.83999999999999 L 464.1499999999999 125.02999999999999 L 465.2999999999999 124.71999999999998 L 465.5199999999999 125.54999999999998 L 464.92999999999995 126.05999999999999 L 465.17999999999995 126.35999999999999 L 469.38999999999993 121.38999999999999 L 470.24999999999994 121.71999999999998 L 472.8299999999999 120.78999999999998 L 476.86999999999995 121.21999999999998 L 476.40999999999997 118.80999999999999 L 477.02 118.57999999999998 L 479.44 118.65999999999998 L 481.21999999999997 119.03999999999998 L 483.84999999999997 120.08999999999997 L 484.89 120.19999999999997 L 487.03999999999996 121.57999999999997 L 488.43999999999994 121.60999999999997 L 489.69999999999993 122.90999999999997 L 491.5899999999999 124.22999999999996 L 494.0899999999999 124.80999999999996 L 495.24999999999994 124.61999999999996 L 495.80999999999995 125.37999999999997 L 496.1499999999999 125.42999999999996 L 497.7399999999999 125.33999999999996 L 500.1999999999999 125.99999999999996 L 500.45999999999987 125.09999999999995 L 499.78999999999985 124.62999999999995 L 501.45999999999987 124.24999999999996 L 502.02999999999986 124.35999999999996 L 501.9399999999999 124.77999999999996 L 501.9399999999999 124.77999999999996 L 501.4799999999999 126.20999999999997 L 501.7099999999999 126.92999999999996 L 502.3399999999999 127.46999999999997 L 501.9599999999999 128.99999999999997 L 500.1699999999999 131.26999999999998 L 496.0399999999999 135.23999999999998 L 492.7199999999999 135.7 L 491.9199999999999 135.54 L 488.9999999999999 138.94 L 489.0399999999999 140.74 L 488.1599999999999 142.57000000000002 L 486.2699999999999 144.42000000000002 L 485.44999999999993 146.4 L 484.80999999999995 146.57 L 484.03999999999996 147.62 L 484.4 149.54 L 485.63 150.37 L 486.01 151.65 L 485.73 153.11 L 484.59000000000003 155.98000000000002 L 486.17 158.79000000000002 L 486.72 161.77 L 486.61 164.20000000000002 L 486.40000000000003 164.75000000000003 L 482.3 169.17000000000002 L 482.13 171.65 L 482.25 173.76000000000002 L 482.76 176.06000000000003 L 484.53999999999996 178.10000000000002 L 486.15 179.01000000000002 L 486.32 179.51000000000002 L 486.45 180.35000000000002 L 486.06 182.55 L 485.77 182.99 L 485.65 184.20000000000002 L 485.15 185.66000000000003 L 483.94 186.97000000000003 L 481.65 187.26000000000002 L 481 186.98000000000002 L 480.17 187.02 L 477.74 187.88000000000002 L 476.22 187.99000000000004 L 473.72 186.17000000000004 L 472.71000000000004 185.96000000000004 L 471.25000000000006 186.15000000000003 L 470.24000000000007 186.75000000000003 L 469.12000000000006 187.01000000000002 L 468.89000000000004 186.71 L 468.05000000000007 186.95000000000002 L 467.55000000000007 187.17000000000002 L 465.6500000000001 189.08 L 465.6600000000001 189.54000000000002 L 465.0300000000001 190.41000000000003 L 463.0200000000001 192.41000000000003 L 460.6800000000001 193.32000000000002 L 457.8100000000001 195.88000000000002 L 456.48000000000013 196.41000000000003 L 455.4300000000001 196.45000000000002 L 453.73000000000013 197.98000000000002 L 452.65000000000015 198.34000000000003 L 450.04000000000013 198.66000000000003 L 447.3200000000001 199.42000000000002 L 445.1900000000001 201.37 L 444.2100000000001 204.34 L 443.8200000000001 207.31 L 443.1900000000001 209.63 L 441.7400000000001 212.37 L 441.4400000000001 212.59 L 441.10000000000014 213.41 L 440.97000000000014 214.93 L 439.77000000000015 217.41 L 438.07000000000016 218.81 L 437.34000000000015 220.81 L 438.0500000000001 222.75 L 438.52000000000015 225.93 L 440.25000000000017 228.99 L 440.21000000000015 229.51000000000002 L 439.45000000000016 230.91000000000003 L 439.32000000000016 237.27000000000004 L 438.1700000000002 239.72000000000003 L 437.9100000000002 240.78000000000003 L 437.8600000000002 242.70000000000002 L 437.8600000000002 242.70000000000002 L 436.5800000000002 242.04000000000002 L 435.9700000000002 241.22000000000003 L 435.1500000000002 240.77000000000004 L 434.1600000000002 240.48000000000005 L 432.3800000000002 240.68000000000004 L 431.67000000000024 240.50000000000003 L 430.3200000000002 238.50000000000003 L 429.3300000000002 235.64000000000001 L 427.2000000000002 234.02 L 427.06000000000023 232.37 L 428.7000000000002 230.56 L 428.62000000000023 230.03 L 424.74000000000024 228.08 L 424.12000000000023 227.03 L 424.06000000000023 225.37 L 423.31000000000023 223.78 L 422.37000000000023 223.09 L 420.29000000000025 222.81 L 420.09000000000026 222.39000000000001 L 420.35000000000025 221.68 L 422.98000000000025 219.14000000000001 L 422.61000000000024 217.83 L 423.34000000000026 215.15 L 424.03000000000026 213.72 L 424.60000000000025 213.17 L 425.9400000000002 212.63 L 429.3300000000002 212.28 L 428.9400000000002 210.93 L 429.5800000000002 207.68 L 429.5000000000002 205.92000000000002 L 427.7000000000002 204.71 L 423.43000000000023 205.65 L 421.28000000000026 206.99 L 419.0100000000003 203.97 L 418.10000000000025 203.12 L 415.10000000000025 198.97 L 414.22000000000025 199.04 L 413.3800000000003 197.6 L 413.9900000000003 196.41 L 413.8800000000003 195.53 L 413.6300000000003 195.19 L 412.2600000000003 194.95 L 411.84000000000026 195.22 L 409.91000000000025 193.89 L 410.09000000000026 193.17999999999998 L 411.85000000000025 192.51999999999998 L 413.60000000000025 190.48 L 413.85000000000025 188.89 L 413.5700000000003 187.89 L 413.8800000000003 185.52999999999997 L 415.65000000000026 179.36999999999998 L 415.66000000000025 178.93999999999997 L 414.98000000000025 177.79999999999998 L 414.7500000000002 176.71999999999997 L 414.9600000000002 172.99999999999997 L 414.3200000000002 171.49999999999997 L 413.8500000000002 168.00999999999996 L 413.0100000000002 166.97999999999996 L 409.61000000000024 165.53999999999996 L 408.3900000000002 165.51999999999995 L 408.11000000000024 165.19999999999996 L 408.03000000000026 164.16999999999996 L 407.4400000000003 163.47999999999996 L 405.7000000000003 163.18999999999997 L 404.7400000000003 163.70999999999998 L 403.3400000000003 163.61999999999998 L 400.56000000000034 162.10999999999999 L 399.70000000000033 162.04999999999998 L 397.74000000000035 162.57999999999998 L 395.12000000000035 164.42999999999998 L 394.5900000000004 165.06999999999996 L 394.5900000000004 165.06999999999996 L 394.10000000000036 164.98999999999995 L 408.81000000000034 153.15999999999994 L 411.16000000000037 153.38999999999993 L 412.3300000000004 152.46999999999994 L 413.8800000000004 150.29999999999995 L 414.3100000000004 149.14999999999995 L 415.8600000000004 147.97999999999996 L 416.4800000000004 145.09999999999997 L 417.6000000000004 144.63999999999996 L 420.0400000000004 142.31999999999996 L 420.51000000000045 141.10999999999996 L 420.80000000000047 139.20999999999995 L 422.4000000000005 134.51999999999995 L 424.36000000000047 132.97999999999996 L 425.8400000000005 131.21999999999997 L 426.67000000000047 129.76999999999998 L 427.13000000000045 128.48999999999998 L 426.95000000000044 126.66999999999999 L 427.74000000000046 125.85999999999999 L 426.70000000000044 124.27999999999999 L 430.38000000000045 121.18999999999998 L 430.25000000000045 119.54999999999998 L 430.75000000000045 117.16999999999999 L 432.49000000000046 115.6 L 432.8500000000005 114.89 L 433.75000000000045 111.87 L 433.83000000000044 110.26 L 433.40000000000043 109.73 L 432.4100000000004 109.89 L 432.14000000000044 109.4 L 432.19000000000045 108.78 L 433.33000000000044 108.63 L 433.90000000000043 107.89 L 434.6100000000004 103.5 L 434.4500000000004 102.12 L 434.9200000000004 101.09 L 435.6900000000004 100.64 L 435.6900000000004 100.64 L 436.3200000000004 100.64 L 436.5600000000004 100.4 L 436.5000000000004 99.86 L 436.8400000000004 99.11 L 437.42000000000036 98.58 L 438.76000000000033 99.56 L 439.2100000000003 101.4 L 440.4000000000003 101.52000000000001 L 441.1700000000003 100.16000000000001 L 441.7800000000003 103.09000000000002 L 442.7700000000003 103.13000000000002 L 443.06000000000034 102.64000000000003 L 443.13000000000034 101.70000000000003 L 443.98000000000036 101.66000000000003 L 445.67000000000036 102.19000000000003 L 446.17000000000036 102.88000000000002 L 444.74000000000035 104.58000000000003 L 445.41000000000037 105.28000000000003 L 445.43000000000035 105.83000000000003 L 446.6400000000003 103.79000000000002 L 447.13000000000034 102.25000000000001 L 447.5800000000003 102.25000000000001 L 447.9800000000003 103.27000000000001 L 447.9800000000003 103.85000000000001 L 447.1100000000003 104.77000000000001 L 446.8400000000003 105.76 L 446.9200000000003 108.47 L 447.1800000000003 108.8 L 447.6500000000003 108.92 L 448.2300000000003 108.78 L 449.1900000000003 107.85 L 448.72000000000025 106.85 L 448.86000000000024 106.25 L 450.18000000000023 104.82 L 451.23000000000025 104.57 L 453.36000000000024 105.16 L 454.86000000000024 104.05 L 454.91000000000025 104.97 L 454.55000000000024 105.17999999999999 L 453.42000000000024 106.71 L 454.0100000000002 107.28999999999999 L 454.11000000000024 106.91999999999999 L 455.36000000000024 106.32 L 455.9400000000002 107.11 L 455.80000000000024 108.32 L 457.43000000000023 110.07 L 458.29000000000025 109.63 L 459.87000000000023 110.3 L 460.6400000000002 112.7 L 460.5300000000002 113.65 L 458.3400000000002 116.38000000000001 L 457.9600000000002 117.27000000000001 L 458.06000000000023 117.93 L 458.66000000000025 116.9 L 460.41000000000025 115.22 L 461.24000000000024 115.19 L 462.11000000000024 116 L 462.6300000000002 117.89 L 462.36000000000024 119.12 L 461.3900000000002 119.31 L 460.36000000000024 120.22 L 459.2000000000002 121.71 L 459.2700000000002 122.47999999999999 L 458.1100000000002 124.82999999999998 L 457.4900000000002 128.35 L 457.70000000000016 128.69 L 458.57 128.92 z M 459.09 129.37 L 459.03 128.58 L 459.55999999999995 127.05000000000001 L 459.1499999999999 125.98000000000002 L 459.2799999999999 125.32000000000002 L 460.18999999999994 124.08000000000003 L 460.73999999999995 123.89000000000003 L 460.78999999999996 126.24000000000002 L 460.56999999999994 127.58000000000003 L 459.7699999999999 128.18000000000004 L 459.09 129.37 z M 452.79 103.61 L 452.35 103.15 L 452.27000000000004 102.55000000000001 L 453.07000000000005 101.43 L 453.91 101.4 L 454.59000000000003 101.82000000000001 L 454.69000000000005 102.16000000000001 L 454.50000000000006 102.52000000000001 L 452.79 103.61 z M 456.29 107.79 L 456 107.49000000000001 L 456.06 106.96000000000001 L 457.12 106.07000000000001 L 457.6 106.14 L 458.1 106.99 L 457.96000000000004 107.6 L 457.56000000000006 107.42999999999999 L 456.29 107.79 z M 442.13 102.98 L 441.92 102.93 L 442.87 99.35000000000001 L 443.17 99.44000000000001 L 443.2 99.67000000000002 L 442.78999999999996 102.73000000000002 L 442.13 102.98 z"
                
                
                
               />
    </g>
</svg>