<?xml version="1.0" encoding="UTF-8"?>
<svg xmlns="http://www.w3.org/2000/svg" viewBox="0 0 1080 1080">
    <g transform="matrix(1 0 0 1 139.79 56.66)">
        <path id="BR-MG" title="Minas Gerais" 
                fill="#ccc" stroke="#424242" stroke-width="0.5"
                vector-effect="non-scaling-stroke"
                transform=" translate(-445.79, -375.93)"
                d="M 527.5 365.33 L 526.59 364.78 L 524.05 363.97 L 522.47 364.05 L 521.39 364.37 L 520.55 364.98 L 518.37 365.27 L 517.03 365.14 L 518.7 367.41 L 518.68 368.22 L 517.55 368.11 L 516.5 367.37 L 516.19 367.39 L 514.02 368.7 L 512.85 370.63 L 513.15 371.33 L 514.48 372 L 515 372.66 L 514.97 374.58 L 514.67 376.12 L 514.88 376.53 L 516.19 376.88 L 516.36 378.6 L 516.04 379.02 L 515.09 379.26 L 514.12 379.23 L 513.32 378.88 L 511.84 378.97 L 511.41 379.52 L 511.9 380.23 L 512.66 380.51 L 513.11 380.22 L 513.63 380.31 L 514.73 381.58 L 516 384.39 L 516.29 386.82 L 515.75 389.79 L 514.04 391.88 L 512.8 392.74 L 512.54 393.18 L 512.3 394.9 L 511.42 397.19 L 510.31 398.46 L 509.34 401.7 L 508.79 402.02 L 503.64 401.99 L 501.92 404.05 L 501.76 404.47 L 502.35 407.59 L 501.78 408.89 L 501.34 411.23 L 501.63 411.37 L 501.63 411.37 L 499.1 413.72 L 497.86 413.99 L 497.3 414.49 L 498.04 415.19 L 495.68 421.24 L 493.78 424.95 L 493.69 425.7 L 495.13 425.83 L 495.42 426.44 L 495.21 426.96 L 492.68 427.94 L 483.17 432.47 L 481.8 432.67 L 481.82 432.21 L 481.33 432.04 L 478.8 431.77 L 478.23 431.83 L 476.61 432.77 L 475.36 432.93 L 472.16 433.01 L 471.8 432.69 L 471.29 432.77 L 467.19 434.55 L 466.14 435.32 L 464.43 436.09 L 463.93 435.81 L 461.34 435.98 L 458.43 437.32 L 456.01 438.06 L 455.33 438.55 L 455.33 438.55 L 454.08 439.28 L 451.88 439.5 L 449.95 440.52 L 448.72 441.76 L 446.93 442.43 L 444.55 442.68 L 442.21 442.6 L 442.2 442.11 L 442.55 441.62 L 442.46 441.27 L 441.27 441.6 L 441.09 443.9 L 441.33 444.13 L 441.28 444.97 L 440.53 445.95 L 439.23 446.27 L 438.66 445.84 L 435.05 446.84 L 434.86 446.31 L 432.85 446.55 L 431.73 446.3 L 429.7 442.99 L 430.92 442.28 L 430.4 440.57 L 428.6 439.74 L 426.81 438.51 L 426.1 436.9 L 426.63 435.34 L 426.82 431.89 L 426.56 428.95 L 428.42 426.23 L 429.12 424.05 L 429.17 422.78 L 428.94 422.41 L 425.24 421.09 L 424.24 421.14 L 423.96 421.5 L 423.18 421.81 L 421.57 421.86 L 421.6 421.01 L 420.77 419.02 L 419.47 417.23 L 419.1 415.02 L 418.79 414.4 L 418 413.66 L 418.19 411.72 L 419.71 409.69 L 419.77 409.13 L 419.37 407.58 L 417.49 406.37 L 416.91 405.76 L 417.2 403.39 L 417.77 402.38 L 417.57 401.34 L 414.3 397.99 L 413 398.28 L 412.15 398.92 L 410.5 398.14 L 408.12 398.25 L 407.81 398.86 L 408.01 399.32 L 407.57 400.31 L 404.79 400.99 L 403.68 400.56 L 402.17 399.11 L 401.16 400.36 L 392.98 401.04 L 392.52 401.52 L 392.04 402.71 L 392.31 405.25 L 391.9 405.69 L 390.71 405.17 L 390.7 402.39 L 390.45 401.43 L 390.09 401.04 L 389.53 400.99 L 389.27 401.18 L 388.86 402.31 L 388.19 403.25 L 387.65 403.57 L 387.03 403.55 L 385.82 401.45 L 385.49 400.03 L 385.63 399.12 L 383.95 398.33 L 381.77 396.91 L 379.78 397.5 L 378.16 397.28 L 376.49 397.63 L 372.2 396.67 L 369.65 396.59 L 367.92 395.04 L 367.17 394.9 L 365.67 395.51 L 364.24 397.2 L 362.32 397.57 L 360.17 398.68 L 358.95 399.81 L 358.95 399.81 L 359.26 397.19 L 358.67 393.98 L 359.66 389.8 L 360.24 389.55 L 360.24 389.55 L 361.1 390.01 L 361.46 389.78 L 361.47 389.44 L 360.91 388.83 L 361.48 386.93 L 363.12 384.83 L 364.06 384.09 L 364.51 383.95 L 365.35 384.11 L 366.17 383.83 L 367.01 382.53 L 366.95 381.53 L 368.16 379.07 L 369.57 376.97 L 371.8 376.43 L 374.28 375.47 L 377.99 376.09 L 381.18 374.45 L 382.7 374.75 L 384.01 376.17 L 384.34 376.17 L 387.25 373.25 L 391.38 370.61 L 393.39 371.5 L 397.25 371.34 L 398.73 371.62 L 400.48 371.61 L 401.06 371.52 L 401.61 371.04 L 405.96 372.9 L 406.66 373.67 L 411.55 370.93 L 412.03 369.81 L 412.89 368.91 L 414.05 368.71 L 417.14 366.65 L 415.95 363.19 L 416.46 361.3 L 417.19 360.4 L 417.36 359.69 L 417.18 358.69 L 416.71 358.08 L 415.13 357.51 L 414.23 357.98 L 413.14 356.87 L 413.57 354.73 L 416.81 351.72 L 419.13 349.01 L 419.13 348.41 L 417.48 343.85 L 416.06 342.82 L 415.21 342.48 L 414.36 341.27 L 414.77 339.8 L 415.81 338.55 L 416.49 336.96 L 416.18 335.39 L 416.71 333.87 L 417.98 333.75 L 420.27 332.24 L 423.63 331.34 L 424.16 330.81 L 423.47 326.55 L 422.94 326.36 L 422.52 325.75 L 422.48 323.85 L 423.21 323.15 L 423.78 322.21 L 423.29 321.05 L 422.57 320.95 L 423.29 317.77 L 423.66 317.49 L 424.83 317.26 L 427.61 318.4 L 428.01 318.27 L 428.58 317.73 L 428 313.96 L 429.17 312.47 L 431.59 313.95 L 432.49 315.71 L 435.72 316.05 L 436.72 315.04 L 436.72 315.04 L 437.23 317.45 L 435.8 320.89 L 436.2 321.12 L 437.54 320.21 L 438.24 319.21 L 438.96 319.08 L 441.09 319.46 L 442.13 318.69 L 443.98 316.12 L 444.97 316.27 L 446.4 315.74 L 448.21 314.19 L 449.16 313.02 L 451.18 312.61 L 454.55 310.75 L 455.19 309.64 L 459.46 306.61 L 463.28 305.03 L 465.08 305.12 L 466.28 305.62 L 468.46 305.65 L 470.74 306.18 L 471.59 306.64 L 470.3 309.38 L 470.15 310.27 L 470.41 311.76 L 471.02 312.26 L 476.35 313.72 L 476.99 313.55 L 477.8 312.43 L 479.68 311.54 L 481.45 311.28 L 484.18 312.03 L 485.28 312.57 L 489.63 316.21 L 490.61 316.03 L 492.78 317.65 L 495.31 318.87 L 496.24 319.09 L 496.75 318.88 L 498.28 320.12 L 502.67 318.89 L 503.05 319.07 L 509.57 325.27 L 510.01 329.23 L 510.58 329.02 L 513.19 329.47 L 514.66 328.97 L 515.98 327.98 L 517.97 328.13 L 520.7 328.69 L 522.96 329.77 L 525.15 330.38 L 527.27 330.35 L 530.1 332.82 L 530.83 333.2 L 531.72 333.27 L 532.5 334.29 L 532.92 335.46 L 531.45 338.54 L 526.49 342.76 L 526.34 345.41 L 526.9 346.43 L 526.9 346.85 L 525.88 347.56 L 523.4 347.32 L 522.58 348.2 L 521.76 351.5 L 521.23 355.9 L 521.45 356.15 L 521.8 355.96 L 522 355.51 L 522.64 355.27 L 523.22 356.5 L 523 358.01 L 523.15 358.52 L 527.29 361.58 L 527.82 362.62 L 527.83 363.15 L 527.15 364.5 z"
                
                
                
               />
    </g>
</svg>