<?xml version="1.0" encoding="UTF-8"?>
<svg xmlns="http://www.w3.org/2000/svg" viewBox="0 0 1080 1080">
    <g transform="matrix(1 0 0 1 -2.22 90.13)">
        <path id="BR-MS" title="Mato Grosso do Sul" 
                fill="#ccc" stroke="#424242" stroke-width="0.5"
                vector-effect="non-scaling-stroke"
                transform=" translate(-303.77, -409.4)"
                d="M 358.95 399.81 L 358.55 402.27 L 358.27 402.67 L 356.77 403.45 L 355.45 403.49 L 354.98 403.71 L 353.76 404.74 L 351.77 407.42 L 351.04 408.07 L 350.03 408.37 L 349.41 410.05 L 349.25 412.98 L 346.66 416.62 L 345.7 417.14 L 345.47 417.52 L 345.78 419.45 L 345.7 420.4 L 344.49 422.74 L 342.49 425 L 342.84 425.85 L 342.56 427.06 L 341.12 428.09 L 340.72 429.3 L 338.99 430.99 L 337.73 433.43 L 335.78 435.3 L 328.22 439.83 L 326.96 440.97 L 326.22 442.51 L 325.38 443.59 L 325.38 443.59 L 319.97 445.86 L 318.86 446.68 L 317.93 449.01 L 317.95 450.16 L 316.5 453.72 L 315.83 454.4 L 314.17 455.41 L 313.06 455.73 L 312.73 456.08 L 311.16 464 L 310.8 464.82 L 308.42 466.38 L 308.42 466.38 L 305.87 464.05 L 302.46 462.16 L 298.47 464.13 L 297.79 464.88 L 296.13 465.37 L 293.55 465.8 L 291.19 465.34 L 290.18 464.69 L 289.71 460.42 L 289.39 459.72 L 288.49 458.77 L 288.26 456.3 L 288.77 454.96 L 288.13 454.17 L 288.04 453.73 L 288.04 450.86 L 287.15 448.89 L 286.55 446.15 L 286.5 445.43 L 287.09 444.07 L 287.11 442.46 L 285.54 441.37 L 285.16 440.57 L 285 438.41 L 283.35 436.59 L 281.18 436.33 L 279.67 436.64 L 277.84 436.35 L 275.38 434.39 L 274.82 432.9 L 273.28 433.23 L 271.11 435.97 L 270.11 435.37 L 268.39 436.18 L 267.31 436.34 L 265.57 435.65 L 263.01 435.16 L 259.55 435.39 L 255.89 434.68 L 255.41 433.77 L 253.42 433.64 L 252.53 434.16 L 250.03 433.28 L 250.94 426.01 L 250.51 423.63 L 251.11 422.21 L 252.09 420.75 L 252.69 414.72 L 252.03 412.39 L 251.98 410.66 L 251.22 409.7 L 250.79 409.61 L 250.3 410.26 L 249.66 407 L 248.87 405.13 L 247.66 403.11 L 247.31 401.28 L 251.34 398.98 L 252.1 398.1 L 247.9 394.24 L 253.28 382.82 L 254.4 382.76 L 254.12 380.63 L 253.38 380.5 L 256.61 370.17 L 257.27 369.01 L 254.18 363.16 L 254.21 361.25 L 254.21 361.25 L 254.91 361.45 L 255.93 362.55 L 258.08 364.07 L 263.7 362.1 L 265.75 360.1 L 267.77 357.15 L 267.86 355.98 L 269.26 354.53 L 271.85 354.56 L 273.41 354.34 L 274.18 354.68 L 275.84 354.17 L 277.19 352.92 L 279.21 352.43 L 280.48 352.63 L 281.24 353.78 L 284.03 355.03 L 286.65 355.5 L 287.3 355.85 L 287.57 356.71 L 288.35 357.73 L 291.38 358.89 L 292.64 360 L 293.88 360.57 L 298.4 359.94 L 299.66 359.14 L 300.15 358.29 L 301.58 357.68 L 304.02 357.75 L 305.61 358.79 L 305.91 360.16 L 306.15 360.41 L 307.14 360.45 L 309.27 359.57 L 310.28 359.63 L 315.9 353.62 L 317.24 353.49 L 316.01 360.1 L 314.21 360.8 L 312.55 363.63 L 312.36 364.09 L 312.51 364.62 L 313.81 364.73 L 315.55 366 L 320.17 366.27 L 320.74 365.7 L 323.4 365.62 L 324.27 365.7 L 325.44 366.27 L 326.99 365.96 L 326.99 365.96 L 327.18 367.73 L 326.92 370.31 L 327.15 371.42 L 327.43 371.83 L 328.09 372.02 L 329.23 371.35 L 331.48 372.25 L 331.56 372.67 L 330.25 374.43 L 329.68 375.6 L 329.42 376.44 L 329.55 376.77 L 333.35 377.47 L 336.13 377.31 L 338.83 378.99 L 339.97 379.16 L 341.41 379.87 L 342.08 380.48 L 345.15 382.04 L 345.83 382.89 L 349.18 384.23 L 350.67 384.27 L 352.57 384.7 L 354.19 386.25 L 357.34 386.86 L 360 389.1 L 360.24 389.55 L 360.24 389.55 L 359.66 389.8 L 358.67 393.98 L 359.26 397.19 z"
                
                
                
               />
    </g>
</svg>