<?xml version="1.0" encoding="UTF-8"?>
<svg xmlns="http://www.w3.org/2000/svg" viewBox="0 0 1080 1080">
    <g transform="matrix(1 0 0 1 -23.8 -38.15)">
        <path id="BR-MT" title="Mato Grosso" 
                fill="#ccc" stroke="#424242" stroke-width="0.5"
                vector-effect="non-scaling-stroke"
                transform=" translate(-282.2, -281.12)"
                d="M 206.96 296.05 L 208.43 294.62 L 212.54 292.05 L 213.06 289.6 L 214.49 285.82 L 215.42 284.74 L 217.06 284.21 L 217.49 283.8 L 218.07 282.96 L 218.59 280.71 L 220.25 278.7 L 220.81 276.46 L 220.88 274.75 L 220.3 273.26 L 220.34 271.21 L 218.81 267.87 L 217.91 267.9 L 217.33 267.39 L 216.9 264.14 L 217.04 262.82 L 218.4 261.74 L 219.8 259.99 L 219.97 259.24 L 218.56 255.65 L 217.49 255.22 L 216.38 255.11 L 212.88 255.2 L 211.66 254.09 L 211.9 253.53 L 194.74 253.48 L 195.64 244.48 L 194.14 241.73 L 193.87 239.97 L 193.9 239.17 L 194.9 235.65 L 194.52 233.72 L 195.46 232.05 L 194.63 229.78 L 194.48 228.39 L 194.22 227.78 L 193.44 227.31 L 193.38 226.96 L 194.67 221.97 L 195.43 220.55 L 194.83 219.31 L 193.43 218.34 L 193.43 218.34 L 241.28 218.02 L 242.49 217.29 L 243.67 212.07 L 245.05 207.85 L 244.59 205.91 L 243.93 204.54 L 243.83 203.69 L 244.25 202.84 L 245.11 202.2 L 246.31 200.38 L 246.58 199.37 L 246.24 198.53 L 246.3 197.77 L 246.5 197.16 L 247.68 195.96 L 247.68 195.96 L 248.85 197.04 L 251.3 201.1 L 251.7 202.86 L 253.07 206.82 L 254.39 208.75 L 255.16 210.37 L 254.93 212.81 L 255.41 215.21 L 256.14 217.41 L 257.67 218.52 L 260.67 221.27 L 264.05 222.97 L 264.28 223.91 L 264.24 225.01 L 264.47 225.5 L 265.42 225.9 L 266.24 225.73 L 267.87 226.18 L 268.41 226.9 L 268.61 227.98 L 268.96 228.3 L 270.33 227.85 L 274.02 229.34 L 308.06 231.76 L 371.03 235.24 L 371.03 235.24 L 370.38 236.26 L 369.82 238.15 L 368.72 239.4 L 368.28 242.54 L 367.85 243.39 L 367.48 243.66 L 365.54 248.95 L 365 251.92 L 364.96 254.87 L 363.08 260.86 L 363.14 261.72 L 364.53 263.06 L 364.37 263.93 L 363.55 264.82 L 363.5 265.32 L 364.6 267.57 L 364.13 270.88 L 364.14 272.45 L 364.66 273.03 L 365.1 276.08 L 364.36 278.84 L 365.34 282.18 L 366.3 282.69 L 367.1 282.71 L 367.1 282.71 L 367.18 283.34 L 366.91 284.47 L 365.94 285.33 L 365.59 286.23 L 365.75 288.95 L 365.36 290.02 L 363.36 293.19 L 362.33 295.82 L 361.12 296.6 L 361.24 301.78 L 359.64 304.87 L 359.06 307.61 L 359.54 308.75 L 359.55 309.55 L 358.38 312.42 L 357.54 315.35 L 356.15 316.78 L 354.94 317.51 L 353.71 316.83 L 352.64 317.09 L 350.99 318.1 L 349.07 320.04 L 348.69 320.78 L 348.05 324.88 L 347.34 325.84 L 345.36 330.03 L 345.04 330.31 L 342.32 331.17 L 339.67 331.3 L 338.27 333.92 L 336.52 334.89 L 336.44 336.43 L 335.62 337.86 L 334.34 338.9 L 333.84 339.91 L 333.51 341.86 L 332.26 343.88 L 330.34 345.65 L 328.32 346.49 L 327.62 347.26 L 327.24 350.17 L 324.69 354.02 L 324.29 357.43 L 324.45 358.14 L 325.86 360.33 L 326.04 363.76 L 326.99 365.96 L 326.99 365.96 L 325.44 366.27 L 324.27 365.7 L 323.4 365.62 L 320.74 365.7 L 320.17 366.27 L 315.55 366 L 313.81 364.73 L 312.51 364.62 L 312.36 364.09 L 312.55 363.63 L 314.21 360.8 L 316.01 360.1 L 317.24 353.49 L 315.9 353.62 L 310.28 359.63 L 309.27 359.57 L 307.14 360.45 L 306.15 360.41 L 305.91 360.16 L 305.61 358.79 L 304.02 357.75 L 301.58 357.68 L 300.15 358.29 L 299.66 359.14 L 298.4 359.94 L 293.88 360.57 L 292.64 360 L 291.38 358.89 L 288.35 357.73 L 287.57 356.71 L 287.3 355.85 L 286.65 355.5 L 284.03 355.03 L 281.24 353.78 L 280.48 352.63 L 279.21 352.43 L 277.19 352.92 L 275.84 354.17 L 274.18 354.68 L 273.41 354.34 L 271.85 354.56 L 269.26 354.53 L 267.86 355.98 L 267.77 357.15 L 265.75 360.1 L 263.7 362.1 L 258.08 364.07 L 255.93 362.55 L 254.91 361.45 L 254.21 361.25 L 254.21 361.25 L 253.55 360.58 L 253.23 359.78 L 253.77 359.07 L 251.33 356.92 L 250.05 357.55 L 249.53 357.5 L 248.36 356.82 L 247.91 356.12 L 245.89 354.71 L 244 353.95 L 243.7 353.63 L 243.4 352.51 L 243.17 349.58 L 242.56 347.81 L 242.37 344.15 L 243.25 342.51 L 244.39 341.42 L 244.73 339.64 L 244.68 337.75 L 243.72 337.81 L 243.32 338.41 L 242.94 338.57 L 216.08 337.49 L 215.03 324.84 L 209.66 318.71 L 214.54 318.65 L 214.19 311.1 L 211.55 305.78 L 211.06 303.81 L 211.32 302.75 L 211.93 302.2 L 212.58 300.92 L 211.14 297.99 L 208.03 296.95 z"
                
                
                
               />
    </g>
</svg>