<?xml version="1.0" encoding="UTF-8"?>
<svg xmlns="http://www.w3.org/2000/svg" viewBox="0 0 1080 1080">
    <g transform="matrix(1 0 0 1 29.16 -180.48)">
        <path id="BR-PA" title="Pará" 
                fill="#ccc" stroke="#424242" stroke-width="0.5"
                vector-effect="non-scaling-stroke"
                transform=" translate(-335.15, -138.78)"
                d="M 371.03 235.24 L 308.05999999999995 231.76000000000002 L 274.0199999999999 229.34000000000003 L 270.3299999999999 227.85000000000002 L 268.9599999999999 228.3 L 268.6099999999999 227.99 L 268.4099999999999 226.9 L 267.8599999999999 226.18 L 266.2299999999999 225.73000000000002 L 265.4099999999999 225.9 L 264.4599999999999 225.51000000000002 L 264.2299999999999 225.01000000000002 L 264.2699999999999 223.91000000000003 L 264.0399999999999 222.97000000000003 L 260.6599999999999 221.27000000000004 L 257.6599999999999 218.51000000000005 L 256.1199999999999 217.40000000000003 L 255.3999999999999 215.20000000000005 L 254.9199999999999 212.81000000000006 L 255.1499999999999 210.37000000000006 L 254.37999999999988 208.74000000000007 L 253.04999999999987 206.81000000000006 L 251.67999999999986 202.86000000000007 L 251.28999999999988 201.10000000000008 L 248.8399999999999 197.04000000000008 L 247.65999999999988 195.96000000000006 L 247.65999999999988 195.96000000000006 L 247.0899999999999 195.40000000000006 L 246.93999999999988 193.44000000000005 L 246.2999999999999 192.18000000000006 L 244.7099999999999 190.62000000000006 L 243.6399999999999 190.04000000000005 L 243.2699999999999 189.47000000000006 L 242.43999999999988 187.13000000000005 L 242.46999999999989 186.00000000000006 L 243.0499999999999 185.03000000000006 L 244.4999999999999 183.90000000000006 L 245.2799999999999 182.59000000000006 L 275.1799999999999 118.35000000000007 L 273.3699999999999 116.68000000000006 L 273.4999999999999 115.90000000000006 L 273.3099999999999 115.42000000000006 L 271.9199999999999 115.77000000000005 L 271.0699999999999 116.38000000000005 L 269.1999999999999 115.60000000000005 L 268.09999999999985 113.43000000000005 L 265.40999999999985 111.98000000000005 L 264.1399999999999 110.64000000000004 L 264.0599999999999 110.04000000000005 L 262.7399999999999 109.22000000000006 L 261.3699999999999 109.07000000000005 L 259.1199999999999 108.42000000000004 L 256.7399999999999 107.11000000000004 L 254.8599999999999 106.44000000000004 L 253.5099999999999 105.35000000000004 L 252.8799999999999 104.45000000000003 L 248.2999999999999 101.91000000000003 L 243.6599999999999 98.14000000000003 L 243.3599999999999 97.70000000000003 L 243.3199999999999 96.77000000000002 L 242.7699999999999 94.94000000000003 L 240.9299999999999 93.71000000000002 L 240.2299999999999 93.90000000000002 L 239.8699999999999 93.70000000000002 L 238.03999999999988 91.72000000000001 L 238.0899999999999 89.61000000000001 L 238.43999999999988 88.92000000000002 L 238.25999999999988 88.51000000000002 L 236.56999999999988 87.66000000000003 L 236.32999999999987 86.98000000000002 L 236.14999999999986 84.71000000000002 L 236.57999999999987 83.26000000000002 L 236.17999999999986 78.40000000000002 L 236.17999999999986 78.40000000000002 L 234.58999999999986 61.43000000000002 L 234.58999999999986 61.43000000000002 L 235.33999999999986 61.75000000000002 L 235.76999999999987 62.33000000000002 L 235.74999999999986 62.81000000000002 L 236.19999999999985 63.210000000000015 L 237.11999999999983 63.490000000000016 L 238.48999999999984 62.780000000000015 L 238.95999999999984 61.97000000000001 L 241.66999999999985 62.20000000000001 L 242.47999999999985 61.15000000000001 L 241.93999999999986 59.34000000000001 L 243.72999999999985 58.98000000000001 L 245.13999999999984 57.35000000000001 L 247.77999999999983 58.36000000000001 L 249.65999999999983 58.39000000000001 L 250.19999999999982 56.870000000000005 L 253.52999999999983 55.25000000000001 L 255.49999999999983 55.64000000000001 L 256.65999999999985 55.53000000000001 L 257.14999999999986 55.28000000000001 L 258.34999999999985 53.80000000000001 L 258.74999999999983 52.40000000000001 L 260.2099999999998 51.30000000000001 L 261.0699999999998 51.19000000000001 L 261.7199999999998 51.65000000000001 L 263.8299999999998 50.52000000000001 L 264.23999999999984 50.63000000000001 L 264.60999999999984 51.62000000000001 L 265.33999999999986 52.070000000000014 L 267.36999999999983 52.55000000000001 L 268.97999999999985 52.80000000000001 L 269.53999999999985 52.20000000000001 L 271.20999999999987 51.81000000000001 L 271.98999999999984 52.09000000000001 L 272.80999999999983 52.08000000000001 L 273.66999999999985 51.74000000000001 L 275.90999999999985 52.040000000000006 L 280.57999999999987 53.42000000000001 L 281.53999999999985 53.28000000000001 L 282.53999999999985 52.41000000000001 L 282.5099999999999 50.13000000000001 L 280.4399999999999 47.63000000000001 L 279.1999999999999 47.00000000000001 L 279.6899999999999 45.32000000000001 L 280.9999999999999 43.870000000000005 L 281.27999999999986 42.760000000000005 L 281.58999999999986 42.59 L 282.29999999999984 42.78 L 283.1299999999998 43.54 L 285.47999999999985 44.65 L 297.09999999999985 42.32 L 298.66999999999985 44.01 L 299.6899999999998 44.07 L 300.1299999999998 43.78 L 300.1299999999998 43.78 L 300.74999999999983 44.35 L 301.11999999999983 46.65 L 300.49999999999983 47.949999999999996 L 300.24999999999983 52.489999999999995 L 300.48999999999984 53.92999999999999 L 300.79999999999984 54.46999999999999 L 301.96999999999986 54.489999999999995 L 303.04999999999984 54.199999999999996 L 306.4399999999998 54.56999999999999 L 307.72999999999985 55.059999999999995 L 309.65999999999985 56.10999999999999 L 310.32999999999987 56.90999999999999 L 310.8199999999999 58.18999999999999 L 312.0099999999999 58.30999999999999 L 313.14999999999986 59.14999999999999 L 313.9499999999999 60.12999999999999 L 314.78999999999985 60.39999999999999 L 316.11999999999983 60.25999999999999 L 316.49999999999983 59.83999999999999 L 317.4399999999998 59.69999999999999 L 320.2799999999998 62.359999999999985 L 320.9599999999998 62.329999999999984 L 321.4499999999998 63.509999999999984 L 320.7699999999998 63.73999999999998 L 320.5799999999998 64.45999999999998 L 321.3399999999998 67.28999999999998 L 323.3599999999998 69.54999999999998 L 325.9299999999998 70.27999999999999 L 326.0999999999998 70.60999999999999 L 325.6699999999998 73.74999999999999 L 325.8599999999998 75.85999999999999 L 326.5299999999998 77.36999999999999 L 327.1499999999998 77.92999999999999 L 327.7399999999998 79.74 L 327.6099999999998 81.32 L 329.1099999999998 84.8 L 329.9299999999998 84.99 L 330.70999999999975 84.63 L 333.63999999999976 87.91 L 333.5599999999998 90.34 L 333.9699999999998 91.28 L 334.9199999999998 91.47 L 335.2499999999998 91.94 L 335.5599999999998 93.52 L 335.3499999999998 94.21 L 335.4599999999998 95.50999999999999 L 337.3299999999998 96.89999999999999 L 337.7599999999998 98.39999999999999 L 339.2099999999998 99.42999999999999 L 341.99999999999983 100.11 L 343.29999999999984 99.99 L 344.0699999999998 99.64999999999999 L 345.0099999999998 99.71 L 345.0099999999998 99.71 L 344.47999999999985 100.44999999999999 L 344.76999999999987 102.03999999999999 L 344.59999999999985 102.57 L 343.30999999999983 103.67999999999999 L 341.91999999999985 103.85 L 341.41999999999985 103.66999999999999 L 340.57999999999987 102.87999999999998 L 339.91999999999985 102.72999999999998 L 336.53999999999985 104.30999999999997 L 336.16999999999985 104.84999999999998 L 334.5699999999998 105.56999999999998 L 333.9399999999998 105.54999999999998 L 332.3899999999998 106.13999999999999 L 332.42999999999984 106.71999999999998 L 338.8899999999998 105.65999999999998 L 339.7699999999998 106.31999999999998 L 339.8999999999998 106.77999999999997 L 339.8999999999998 107.43999999999997 L 339.2799999999998 107.93999999999997 L 339.5799999999998 108.29999999999997 L 340.2099999999998 108.09999999999997 L 341.0699999999998 107.09999999999997 L 342.0899999999998 107.08999999999996 L 342.6199999999998 106.81999999999996 L 343.2199999999998 106.93999999999997 L 344.2899999999998 106.51999999999997 L 345.4299999999998 105.94999999999997 L 348.70999999999975 103.60999999999997 L 350.20999999999975 103.25999999999998 L 352.0499999999997 102.44999999999997 L 355.20999999999975 100.60999999999997 L 355.7499999999998 99.60999999999997 L 356.4199999999998 99.08999999999997 L 358.50999999999976 98.07999999999997 L 359.1699999999998 97.35999999999997 L 358.9199999999998 96.68999999999997 L 359.12999999999977 96.27999999999997 L 360.25999999999976 95.99999999999997 L 361.34999999999974 96.05999999999997 L 361.75999999999976 96.26999999999997 L 362.13999999999976 100.06999999999996 L 361.6199999999998 102.64999999999996 L 361.94999999999976 104.26999999999997 L 362.75999999999976 105.86999999999996 L 364.06999999999977 107.21999999999996 L 364.3699999999998 108.85999999999996 L 364.2499999999998 109.32999999999996 L 362.4099999999998 111.16999999999996 L 361.93999999999977 111.29999999999995 L 361.06999999999977 110.77999999999996 L 359.2499999999998 110.25999999999996 L 357.9899999999998 109.94999999999996 L 357.0599999999998 110.08999999999996 L 354.9299999999998 109.04999999999995 L 354.6699999999998 107.92999999999995 L 353.7899999999998 107.39999999999995 L 351.5099999999998 111.21999999999994 L 350.8999999999998 113.58999999999995 L 351.5799999999998 116.55999999999995 L 352.05999999999983 117.19999999999995 L 352.97999999999985 117.81999999999995 L 351.96999999999986 116.67999999999995 L 351.53999999999985 113.98999999999995 L 351.65999999999985 113.46999999999996 L 354.22999999999985 109.24999999999996 L 356.53999999999985 110.42999999999996 L 356.64999999999986 110.87999999999997 L 359.17999999999984 113.32999999999997 L 358.92999999999984 115.34999999999997 L 358.1899999999998 115.89999999999996 L 358.5899999999998 118.22999999999996 L 359.1099999999998 119.35999999999996 L 360.2299999999998 120.10999999999996 L 360.9699999999998 120.25999999999996 L 361.4899999999998 120.74999999999996 L 361.1499999999998 120.10999999999996 L 360.3799999999998 119.86999999999996 L 359.17999999999984 118.82999999999996 L 358.9599999999998 118.14999999999995 L 359.2999999999998 113.94999999999995 L 360.1199999999998 112.75999999999995 L 361.5499999999998 113.48999999999995 L 362.37999999999977 114.68999999999996 L 362.2899999999998 115.47999999999996 L 363.4899999999998 116.33999999999996 L 363.7399999999998 116.04999999999995 L 362.7399999999998 114.78999999999995 L 361.81999999999977 112.68999999999996 L 361.81999999999977 112.24999999999996 L 364.07999999999976 109.92999999999996 L 365.69999999999976 110.01999999999997 L 367.62999999999977 110.65999999999997 L 367.96999999999974 111.21999999999997 L 367.35999999999973 111.80999999999997 L 367.6799999999997 112.08999999999997 L 368.15999999999974 112.11999999999998 L 369.1899999999997 111.94999999999997 L 370.5199999999997 111.04999999999997 L 374.6099999999997 110.08999999999997 L 375.37999999999965 110.28999999999998 L 377.11999999999966 111.34999999999998 L 380.2899999999997 110.92999999999998 L 381.3599999999997 110.51999999999998 L 382.37999999999965 109.50999999999998 L 383.3599999999997 108.91999999999997 L 385.0999999999997 108.40999999999997 L 385.86999999999966 108.47999999999996 L 385.92999999999967 109.22999999999996 L 383.88999999999965 113.24999999999996 L 383.64999999999964 114.74999999999996 L 383.18999999999966 115.81999999999995 L 382.3599999999997 116.84999999999995 L 382.3499999999997 117.72999999999995 L 382.92999999999967 119.14999999999995 L 382.6099999999997 121.61999999999995 L 383.48999999999967 120.42999999999995 L 383.49999999999966 119.02999999999994 L 385.0399999999997 116.02999999999994 L 386.1699999999997 112.83999999999995 L 387.2899999999997 111.27999999999994 L 387.55999999999966 111.00999999999995 L 388.31999999999965 110.95999999999995 L 388.89999999999964 110.60999999999996 L 390.71999999999963 110.37999999999995 L 391.5999999999996 109.02999999999996 L 393.1099999999996 107.33999999999996 L 394.46999999999963 105.07999999999996 L 394.9899999999996 104.61999999999996 L 395.77999999999963 105.10999999999996 L 396.39999999999964 104.64999999999996 L 398.01999999999964 106.98999999999997 L 399.20999999999964 107.57999999999997 L 399.1599999999996 106.83999999999997 L 398.8099999999996 106.08999999999997 L 399.4299999999996 105.07999999999997 L 402.9399999999996 104.56999999999996 L 401.9099999999996 104.24999999999997 L 398.39999999999964 104.70999999999997 L 398.08999999999963 104.49999999999997 L 398.37999999999965 102.06999999999996 L 398.88999999999965 101.77999999999996 L 399.55999999999966 102.15999999999995 L 400.57999999999964 102.26999999999995 L 401.64999999999964 99.16999999999996 L 400.96999999999963 97.77999999999996 L 400.9999999999996 97.09999999999995 L 402.1699999999996 95.28999999999995 L 405.0099999999996 92.80999999999995 L 405.3699999999996 92.72999999999995 L 406.4799999999996 93.86999999999995 L 409.4099999999996 91.77999999999994 L 409.8699999999996 91.70999999999995 L 410.2699999999996 92.15999999999995 L 410.3699999999996 92.72999999999995 L 410.0499999999996 93.39999999999995 L 411.1199999999996 93.23999999999995 L 411.9299999999996 92.65999999999995 L 412.2899999999996 91.87999999999995 L 412.9199999999996 91.68999999999996 L 413.1999999999996 91.83999999999996 L 413.9399999999996 93.22999999999996 L 415.2699999999996 94.42999999999996 L 415.4699999999996 93.86999999999996 L 415.35999999999956 93.48999999999997 L 414.4 93 L 414.26 92.71 L 414.13 91.50999999999999 L 414.3 91.08999999999999 L 414.74 90.89999999999999 L 417.02 91.16 L 418.2 91.81 L 418.82 92.83 L 420.45 93.53999999999999 L 422.09999999999997 92.75999999999999 L 422.62999999999994 94.89999999999999 L 422.12999999999994 95.21 L 422.09999999999997 95.8 L 423.02 95.28 L 424.18 92.93 L 424.56 93.16000000000001 L 424.33 94.49000000000001 L 424.74 94.93 L 427.25 94.67 L 427.7 95.32000000000001 L 428.15999999999997 97.00000000000001 L 427.55999999999995 97.95000000000002 L 428.40999999999997 97.45000000000002 L 428.66999999999996 97.82000000000002 L 430.55999999999995 97.96000000000002 L 434.0899999999999 96.72000000000003 L 433.7799999999999 98.30000000000003 L 433.0299999999999 100.13000000000002 L 434.49999999999994 99.64000000000003 L 435.0899999999999 99.02000000000002 L 435.7199999999999 100.64000000000003 L 435.7199999999999 100.64000000000003 L 434.94999999999993 101.09000000000003 L 434.4799999999999 102.12000000000003 L 434.63999999999993 103.50000000000003 L 433.92999999999995 107.89000000000003 L 433.35999999999996 108.63000000000002 L 432.21999999999997 108.78000000000003 L 432.16999999999996 109.40000000000003 L 432.43999999999994 109.89000000000003 L 433.42999999999995 109.73000000000003 L 433.85999999999996 110.26000000000003 L 433.78 111.87000000000003 L 432.88 114.89000000000003 L 432.52 115.60000000000002 L 430.78 117.17000000000002 L 430.28 119.55000000000001 L 430.40999999999997 121.19000000000001 L 426.72999999999996 124.28000000000002 L 427.77 125.86000000000001 L 426.97999999999996 126.67000000000002 L 427.15999999999997 128.49 L 426.7 129.77 L 425.87 131.22 L 424.39 132.98 L 422.43 134.51999999999998 L 420.83 139.20999999999998 L 420.53999999999996 141.10999999999999 L 420.06999999999994 142.32 L 417.62999999999994 144.64 L 416.50999999999993 145.1 L 415.88999999999993 147.98 L 414.3399999999999 149.14999999999998 L 413.9099999999999 150.29999999999998 L 412.3599999999999 152.46999999999997 L 411.1899999999999 153.38999999999996 L 408.83999999999986 153.15999999999997 L 394.1299999999999 164.98999999999998 L 394.6199999999999 165.07 L 394.6199999999999 165.07 L 396.9099999999999 165.88 L 398.7799999999999 165.64 L 400.06999999999994 165.76 L 401.0899999999999 167.42 L 401.4799999999999 167.73 L 402.3499999999999 167.86999999999998 L 403.6099999999999 169.03999999999996 L 403.5699999999999 169.66999999999996 L 403.1999999999999 170.33999999999995 L 402.47999999999985 170.70999999999995 L 401.5099999999998 170.77999999999994 L 401.2199999999998 171.05999999999995 L 401.3099999999998 172.46999999999994 L 402.31999999999977 173.80999999999995 L 401.39999999999975 176.55999999999995 L 400.75999999999976 177.03999999999994 L 399.2999999999998 177.49999999999994 L 399.0499999999998 177.95999999999995 L 399.3399999999998 179.15999999999994 L 399.1499999999998 180.49999999999994 L 397.8499999999998 180.64999999999995 L 396.3399999999998 181.98999999999995 L 395.4899999999998 183.25999999999996 L 395.63999999999976 184.76999999999995 L 395.39999999999975 185.26999999999995 L 392.89999999999975 186.46999999999994 L 389.4899999999997 187.60999999999993 L 387.0199999999997 189.38999999999993 L 386.8299999999997 189.73999999999992 L 387.2599999999997 191.92999999999992 L 387.3199999999997 194.5999999999999 L 386.03999999999974 196.6999999999999 L 384.6299999999997 198.3799999999999 L 384.47999999999973 198.9499999999999 L 384.64999999999975 199.8299999999999 L 385.2399999999997 200.7899999999999 L 386.90999999999974 202.52999999999992 L 387.65999999999974 202.8499999999999 L 387.8099999999997 203.14999999999992 L 387.1499999999997 207.1899999999999 L 385.3899999999997 212.33999999999992 L 384.3099999999997 213.14999999999992 L 382.60999999999973 216.38999999999993 L 382.4299999999997 217.37999999999994 L 381.4899999999997 218.91999999999993 L 380.7499999999997 219.76999999999992 L 379.6999999999997 219.92999999999992 L 378.3299999999997 220.8499999999999 L 377.2999999999997 222.7699999999999 L 376.08999999999975 224.4499999999999 L 374.90999999999974 225.5399999999999 L 373.75999999999976 227.11999999999992 L 372.62999999999977 231.57999999999993 L 371.03 235.24 z M 392.19 104.93 L 387.67 106.89 L 384.28000000000003 107.41 L 382.26000000000005 107.1 L 381.61000000000007 108.22999999999999 L 379.7700000000001 109.41999999999999 L 379.05000000000007 108.80999999999999 L 378.44000000000005 107.27999999999999 L 378.21000000000004 107.55999999999999 L 378.63000000000005 108.78999999999999 L 378.2900000000001 109.6 L 377.5800000000001 110.00999999999999 L 373.8100000000001 108.36999999999999 L 373.0100000000001 109.08999999999999 L 368.8200000000001 110.35 L 365.6200000000001 109.78 L 364.8100000000001 109.17 L 364.5700000000001 107.32000000000001 L 364.3400000000001 106.91000000000001 L 363.2300000000001 105.89000000000001 L 362.1700000000001 104.29000000000002 L 361.9600000000001 102.51000000000002 L 362.4800000000001 99.76000000000002 L 363.1000000000001 99.38000000000002 L 364.86000000000007 99.74000000000002 L 365.7900000000001 98.99000000000002 L 365.87000000000006 98.43000000000002 L 364.57000000000005 98.86000000000003 L 363.35 98.73000000000003 L 362.41 98.02000000000004 L 362.23 96.97000000000004 L 362.57 91.89000000000004 L 363.3 91.13000000000004 L 363.65000000000003 91.88000000000004 L 365.41 92.48000000000003 L 365.96000000000004 92.42000000000003 L 365.50000000000006 92.00000000000003 L 364.2300000000001 91.78000000000003 L 363.3300000000001 89.62000000000003 L 363.6900000000001 87.94000000000003 L 364.5800000000001 85.97000000000003 L 365.9100000000001 84.64000000000003 L 366.87000000000006 84.07000000000004 L 368.21000000000004 83.58000000000004 L 369.53000000000003 83.45000000000005 L 372.99 83.97000000000004 L 380.2 85.74000000000004 L 383.9 85.28000000000004 L 384.01 84.98000000000005 L 385.15 84.36000000000004 L 387.31 83.99000000000004 L 390.2 84.28000000000004 L 393 85.10000000000004 L 399.48 85.95000000000003 L 400.11 86.42000000000003 L 400.06 87.65000000000003 L 399.36 88.39000000000003 L 398.68 89.89000000000003 L 398.32 92.54000000000003 L 397.46 95.84000000000003 L 396.16999999999996 96.52000000000004 L 395.81999999999994 97.21000000000004 L 396.04999999999995 98.40000000000003 L 394.06999999999994 100.98000000000003 L 392.67999999999995 104.48000000000003 L 392.19 104.93 z M 344.98 104.76 L 344.23 104.25 L 345.33000000000004 102 L 345.24000000000007 100.21 L 345.49000000000007 100 L 347.82000000000005 99.52 L 348.72 98.66 L 348.87 98.16 L 348.67 95.82 L 349.53000000000003 93.24 L 350.79 91.75 L 353.08000000000004 90.28 L 355.95000000000005 90.08 L 356.6700000000001 92.44 L 355.57000000000005 94.63 L 354.72 97.67 L 353.62 98.34 L 352.28000000000003 100.37 L 351.50000000000006 101.09 L 346.56000000000006 104.4 L 344.98 104.76 z M 373.46 81.86 L 372.43 81.61 L 369.98 81.69 L 369.19 81.53 L 368.9 81.27 L 368.52 80.17999999999999 L 368.53 78.94 L 370.03999999999996 78.52 L 371.92999999999995 78.56 L 374.11999999999995 77.27 L 378.92999999999995 76.67 L 379.69999999999993 76.93 L 380.37999999999994 77.61000000000001 L 380.19999999999993 78.63000000000001 L 377.63999999999993 80.02000000000001 L 375.85999999999996 82.50000000000001 L 374.76 83 L 373.46 81.86 z M 378.25 81.86 L 380.11 80.66 L 382.09000000000003 80.69 L 383.74 81.31 L 384.27 82.3 L 384.32 82.92 L 383.44 83.69 L 380.59 83.97 L 379.41999999999996 84.28999999999999 L 377.15999999999997 83.39999999999999 L 376.96 82.86999999999999 L 378.25 81.86 z M 361.27 86.25 L 360.77 85.99 L 360.15999999999997 86.03 L 358.61999999999995 85.34 L 358.8299999999999 84.18 L 359.4699999999999 83.26 L 361.38999999999993 82.86 L 363.74999999999994 81.96 L 365.06999999999994 82.03999999999999 L 365.86999999999995 82.72 L 365.9599999999999 82.85 L 364.0299999999999 84.46 L 362.9599999999999 84.8 L 361.27 86.25 z M 370.69 76.56 L 369.87 76.26 L 369.7 74.60000000000001 L 369.84999999999997 74.00000000000001 L 371.02 72.69000000000001 L 373.46999999999997 71.77000000000001 L 373.71999999999997 71.89000000000001 L 374.24999999999994 72.57000000000002 L 374.28999999999996 73.46000000000002 L 372.34 75.45000000000002 L 370.69 76.56 z M 356.86 96.78 L 356.72 96.37 L 356.91 95.44 L 357.95000000000005 92.63 L 360.54 90.94 L 361.26000000000005 90.66 L 361.95000000000005 90.8 L 361.79 92.59 L 360.23 93.03 L 358.61 95.22 L 356.86 96.78 z M 367.77 79.21 L 366.58 78.89999999999999 L 366.28 78.41999999999999 L 367.15999999999997 77.46 L 367.86999999999995 73.50999999999999 L 368.75999999999993 72.27999999999999 L 369.04999999999995 72.40999999999998 L 369.11999999999995 72.72999999999998 L 369.09999999999997 75.20999999999998 L 369.7 77.07999999999998 L 369.38 77.95999999999998 L 368.35 78.35999999999999 L 367.77 79.21 z M 352.96 89.4 L 352.69 89.21000000000001 L 352.81 88.60000000000001 L 353.36 88.24000000000001 L 354.55 86.53000000000002 L 355.31 84.99000000000001 L 356.04 84.33000000000001 L 357.49 83.79 L 357.29 85.28 L 356.89000000000004 86.28 L 355.17 87.94 L 352.96 89.4 z M 366.83 82.37 L 366.22999999999996 82.22 L 365.39 81.51 L 364.43 79.87 L 364.38 79.49000000000001 L 364.61 79.2 L 365.42 78.62 L 367.27000000000004 79.46000000000001 L 367.56000000000006 79.89000000000001 L 367.80000000000007 81.98000000000002 L 366.83 82.37 z M 361.45 112.93 L 360.8 112.82000000000001 L 359.92 112.30000000000001 L 359.23 112.76 L 358.48 112.48 L 356.8 110.74000000000001 L 356.8 110.13000000000001 L 358.08 110.12 L 361.14 111.44 L 361.45 112.93 z M 340.3 107.39 L 340.34000000000003 106.36 L 340.14000000000004 106.06 L 340.74000000000007 105.07000000000001 L 343.1000000000001 104.19000000000001 L 343.88000000000005 104.57000000000001 L 344.75000000000006 105.43 L 344.46000000000004 105.78 L 343.43000000000006 106.25 L 340.89000000000004 106.66 L 340.3 107.39 z M 353 100.7 L 352.82 100.67 L 352.83 100.32000000000001 L 353.37 99.38000000000001 L 355.16 97.76 L 355.58000000000004 96.52000000000001 L 355.63000000000005 95.22000000000001 L 355.87000000000006 94.92000000000002 L 356.19000000000005 95.36000000000001 L 356.19000000000005 96.87000000000002 L 355.30000000000007 99.60000000000002 L 354.68000000000006 100.25000000000003 L 353 100.7 z M 359.3 90.8 L 360.95 87.84 L 361.83 87.63000000000001 L 362.53999999999996 87.82000000000001 L 362.80999999999995 88.69000000000001 L 362.22999999999996 89.4 L 359.3 90.8 z M 390.72 109.77 L 389.88000000000005 109.42 L 389.5400000000001 108.36 L 390.5800000000001 106.64 L 391.6500000000001 106.31 L 391.8400000000001 106.41 L 391.8200000000001 107.14999999999999 L 391.0800000000001 109.38999999999999 L 390.72 109.77 z M 357.24 90.3 L 356.7 90.1 L 357.02 88.05999999999999 L 358.34999999999997 86.24999999999999 L 358.58 86.28999999999999 L 359.87 87.16999999999999 L 359.86 87.41999999999999 L 358.31 88.05999999999999 L 357.24 90.3 z M 359.47 95.33 L 360.19000000000005 95.36 L 359.7900000000001 95.81 L 358.8500000000001 96.12 L 358.74000000000007 97.24000000000001 L 357.95000000000005 97.95 L 356.26000000000005 98.79 L 356.1 98.61 L 356.37 97.78 L 356.84000000000003 97.15 L 358.57000000000005 95.48 L 359.47 95.33 z M 336.91 105.54 L 336.36 105.35000000000001 L 336.29 105.00000000000001 L 336.72 104.60000000000001 L 340.28000000000003 103.00000000000001 L 340.82000000000005 103.70000000000002 L 340.81000000000006 103.90000000000002 L 339.4100000000001 104.63000000000002 L 336.91 105.54 z M 400.44 100.76 L 399.41 100.57000000000001 L 398.59000000000003 99.78 L 399.46000000000004 98.53 L 400.8 98.52 L 400.99 99.71 L 400.89 100.3 L 400.44 100.76 z M 363.19 81.86 L 360.83 82.56 L 360.24 82.57000000000001 L 360.06 82.36000000000001 L 361.09 81.32000000000001 L 362.13 80.81 L 363.17 80.98 L 363.61 81.32000000000001 L 363.76 81.55000000000001 L 363.61 81.76 L 363.19 81.86 z M 357.92 90.45 L 357.84000000000003 89.69 L 358.09000000000003 89.19 L 360.57000000000005 87.73 L 359.6700000000001 89.73 L 358.86000000000007 90.36 L 357.92 90.45 z M 360.06 94.98 L 359.61 94.86 L 359.54 94.63 L 360.32 93.13 L 361.51 93.14999999999999 L 361.39 94.49999999999999 L 360.06 94.98 z M 388.1 110.81 L 387.82000000000005 110.58 L 388.72 108.98 L 389.40000000000003 108.58 L 389.63000000000005 109.33 L 390.14000000000004 109.7 L 389.88000000000005 110.22 L 389.45000000000005 110.56 L 388.82000000000005 110.38 L 388.1 110.81 z M 361.44 87.49 L 360.55 87.42 L 360.57 87.23 L 362.93 85.39 L 362.97 86.35 L 362.74 86.97999999999999 L 362.49 87.32 L 361.44 87.49 z M 428.9 97.71 L 428.52 97.17999999999999 L 428.71 96.41999999999999 L 429.72999999999996 95.50999999999999 L 429.97999999999996 95.66 L 430.21 97.41 L 428.9 97.71 z"
                
                
                
               />
    </g>
</svg>