<?xml version="1.0" encoding="UTF-8"?>
<svg xmlns="http://www.w3.org/2000/svg" viewBox="0 0 1080 1080">
    <g transform="matrix(1 0 0 1 275.13 -126.21)">
        <path id="BR-PB" title="Paraíba" 
                fill="#ccc" stroke="#424242" stroke-width="0.5"
                vector-effect="non-scaling-stroke"
                transform=" translate(-581.13, -193.05)"
                d="M 610.43 199.15 L 607.93 197.09 L 607.11 196.83 L 604.46 196.62 L 602.15 197.69 L 600.67 198.97 L 600.22 200.77 L 598.32 201.8 L 596.31 202.25 L 595.17 202.23 L 595.17 202.83 L 594.37 203.36 L 592.19 203.65 L 588.31 203.39 L 586.7 204.27 L 586.15 204.91 L 584.33 205.01 L 583.44 205.7 L 582.9 206.46 L 583.29 207.19 L 583.3 207.73 L 582.9 208.21 L 581.12 209.74 L 579.78 209.9 L 578.13 210.74 L 576.53 209.95 L 575.58 209.01 L 575.23 206.77 L 575.47 206.28 L 575.29 205.98 L 574.15 205.66 L 573.71 205.95 L 572.2 206.2 L 572.24 205.75 L 574.77 203.11 L 574.94 202.68 L 574.22 200.81 L 574.18 200.34 L 574.55 199.56 L 577.55 198.49 L 577.66 198.19 L 577.16 196.8 L 573.66 194.88 L 572.18 195.29 L 569.96 196.55 L 569.03 198.06 L 567.55 198.93 L 566.5 199.24 L 563.8 201.12 L 562.28 202.76 L 560.65 202.99 L 558.02 203.96 L 557.25 203.63 L 557.3 202.95 L 556.67 201.71 L 556.29 201.63 L 555.36 202.36 L 553.85 202.68 L 552.86 202.35 L 551.46 200.44 L 551.06 200.35 L 551.06 200.35 L 550.89 200.1 L 552.08 198.98 L 553.69 195.49 L 553.35 194.3 L 552.66 194.22 L 551.42 193.33 L 551.44 191.67 L 551.09 190.95 L 550.51 190.66 L 550.27 190.25 L 550.39 189.32 L 550.56 188.94 L 551.65 188.31 L 552.31 187 L 551.79 185.69 L 552.82 182.69 L 553.66 181.54 L 553.74 181 L 553.74 181 L 554.31 180.54 L 556.24 182.18 L 557.14 182.6 L 560.02 183.21 L 561.18 182.08 L 564.41 180.42 L 565.23 179.71 L 565.33 178.67 L 565.74 177.72 L 568.92 176.51 L 570.35 176.39 L 573.61 175.35 L 574.25 175.43 L 574.78 175.87 L 574.79 177.06 L 571.8 180.27 L 571.36 181.23 L 570.98 182.97 L 570.57 183.35 L 569.72 183.6 L 569.51 183.91 L 569.43 185.63 L 572.96 186.15 L 573.28 186.38 L 573.59 187.76 L 573.88 187.99 L 577.03 186.73 L 578.8 186.65 L 580.75 186.95 L 581.64 188.12 L 581.12 189.66 L 581.95 190.4 L 584.3 189.47 L 584.8 188.73 L 585.35 187.52 L 584.88 186.58 L 584.72 185.16 L 585.2 184.57 L 586.21 184.89 L 585.68 183.36 L 584.96 182.58 L 585.27 181.1 L 587.09 179.75 L 588.47 179.7 L 588.89 180.09 L 588.79 181.09 L 589.41 181.58 L 592.83 181.98 L 593.36 182.33 L 599.19 181.94 L 601.36 182.24 L 603.82 183.34 L 604.86 182.94 L 608.36 183.15 L 609.29 182.91 L 609.29 182.91 L 609.38 185.31 L 610.83 189.7 L 610.89 190.34 L 610.71 191.28 L 610.34 191.73 L 610.31 192.61 L 610.89 191.87 L 611.4 190.37 L 611.41 192.35 L 612 193.36 L 611.73 198.54 L 611.37 199.14 z"
                
                
                
               />
    </g>
</svg>