<?xml version="1.0" encoding="UTF-8"?>
<svg xmlns="http://www.w3.org/2000/svg" viewBox="0 0 1080 1080">
    <g transform="matrix(1 0 0 1 254.6 -106.99)">
        <path id="BR-PE" title="Pernambuco" 
                fill="#ccc" stroke="#424242" stroke-width="0.5"
                vector-effect="non-scaling-stroke"
                transform=" translate(-560.6, -212.26)"
                d="M 558.28 227.19 L 557.06 224.15 L 557.05 223.21 L 554.94 222.35 L 554.44 221.98 L 553.99 221.15 L 554.6 220.26 L 554.58 219.64 L 554.13 219.32 L 553.13 219.33 L 552.7 219.77 L 552.41 221.51 L 551.98 221.66 L 551.59 221.4 L 551.05 219.75 L 549.47 218.6 L 546.48 218.2 L 544.12 217.43 L 542.77 216.62 L 541.94 215.18 L 540.45 214.62 L 539.86 214.73 L 537.33 216.19 L 535.68 216.63 L 534.91 218.68 L 532.68 219.13 L 532.39 219.38 L 532.64 220.74 L 532.47 221.33 L 531.37 222.57 L 528.98 223.6 L 528.34 223.54 L 527.57 223.01 L 526.81 223.18 L 526.31 224.05 L 525.54 227.62 L 522.67 228.5 L 521.85 229.42 L 520.89 229.65 L 519.05 229.03 L 519.97 227.35 L 519.71 225.35 L 517.5 224.44 L 516.78 222.5 L 516.84 219.77 L 516.4 219.26 L 513.59 217.88 L 511.39 217.59 L 510.23 217.85 L 509.33 217.45 L 509.33 217.45 L 511.95 216.18 L 513.92 214.47 L 514.46 213.6 L 516.75 212.27 L 517.72 211.99 L 521.61 208.12 L 522.35 206.36 L 522.41 204.09 L 522.12 203.55 L 520.5 201.97 L 520.57 199.78 L 519.97 198.65 L 519.91 197.7 L 520.02 197.25 L 520.54 196.92 L 522.33 196.76 L 522.33 196.76 L 527.26 196.96 L 528.15 197.2 L 529.78 197.01 L 531.92 196.21 L 533.21 196.11 L 536.29 196.53 L 539.14 198.43 L 540.97 199.26 L 541.43 200.25 L 542.44 201.32 L 543.8 201.8 L 544.58 202.37 L 545.21 204.01 L 546.86 203.96 L 548.4 201.67 L 549.47 200.84 L 551.06 200.35 L 551.06 200.35 L 551.46 200.44 L 552.86 202.35 L 553.85 202.68 L 555.36 202.36 L 556.29 201.63 L 556.67 201.71 L 557.3 202.95 L 557.25 203.63 L 558.02 203.96 L 560.65 202.99 L 562.28 202.76 L 563.8 201.12 L 566.5 199.24 L 567.55 198.93 L 569.03 198.06 L 569.96 196.55 L 572.18 195.29 L 573.66 194.88 L 577.16 196.8 L 577.66 198.19 L 577.55 198.49 L 574.55 199.56 L 574.18 200.34 L 574.22 200.81 L 574.94 202.68 L 574.77 203.11 L 572.24 205.75 L 572.2 206.2 L 573.71 205.95 L 574.15 205.66 L 575.29 205.98 L 575.47 206.28 L 575.23 206.77 L 575.58 209.01 L 576.53 209.95 L 578.13 210.74 L 579.78 209.9 L 581.12 209.74 L 582.9 208.21 L 583.3 207.73 L 583.29 207.19 L 582.9 206.46 L 583.44 205.7 L 584.33 205.01 L 586.15 204.91 L 586.7 204.27 L 588.31 203.39 L 592.19 203.65 L 594.37 203.36 L 595.17 202.83 L 595.17 202.23 L 596.31 202.25 L 598.32 201.8 L 600.22 200.77 L 600.67 198.97 L 602.15 197.69 L 604.46 196.62 L 607.11 196.83 L 607.93 197.09 L 610.43 199.15 L 610.43 199.15 L 611.31 199.38 L 611.86 200.6 L 610.59 202.32 L 610.48 202.87 L 610.49 203.35 L 611.19 203.72 L 611.46 204.22 L 611.65 205.28 L 609.69 211.66 L 606.44 220.61 L 606.44 220.61 L 606.17 220.4 L 603.27 220.13 L 601.35 219.32 L 599.88 219.51 L 597.32 220.8 L 595.08 219.95 L 593.08 220.19 L 591.53 221.43 L 591.41 221.88 L 589.23 224.17 L 587.42 225.28 L 586.26 225.23 L 584.4 226.29 L 583.23 226.4 L 580.09 226.11 L 577.59 226.76 L 575.68 226.28 L 573.9 225.23 L 572 223.11 L 569.45 221.09 L 568.37 221.21 L 566.7 220.91 L 565.7 219.69 L 564.88 220.29 L 564.79 220.98 L 562.41 224.27 L 560.24 225.03 L 559.6 226.12 z"
                
                
                
               />
    </g>
</svg>