<?xml version="1.0" encoding="UTF-8"?>
<svg xmlns="http://www.w3.org/2000/svg" viewBox="0 0 1080 1080">
    <g transform="matrix(1 0 0 1 174.84 -130.97)">
        <path id="BR-PI" title="Piauí" 
                fill="#ccc" stroke="#424242" stroke-width="0.5"
                vector-effect="non-scaling-stroke"
                transform=" translate(-480.85, -188.29)"
                d="M 505.7 126.91 L 507.01 127.03 L 507.7 126.8 L 509.94 127.31 L 510.93 128.16 L 511.25 128.76 L 511.25 128.76 L 511.14 129.56 L 510.05 131.41 L 508.47 133.38 L 508.29 134.84 L 508.58 136.13 L 510.38 140.85 L 513.53 147.27 L 513.97 149 L 515.33 150.59 L 515.31 151.35 L 514.57 152.71 L 515.36 156.58 L 514.88 158.18 L 515.88 160.19 L 516.48 163.18 L 515.89 164.76 L 515.09 165.34 L 516.01 166.03 L 516.12 166.41 L 517.06 174.57 L 516.82 175.02 L 517.58 177.59 L 518.63 182.79 L 519.64 185.46 L 520.95 186.11 L 523.51 186.58 L 524.28 187.74 L 524.27 188.43 L 522.77 190.68 L 521.63 193.79 L 521.71 194.76 L 522.39 195.44 L 522.33 196.76 L 522.33 196.76 L 520.54 196.92 L 520.02 197.25 L 519.91 197.7 L 519.97 198.65 L 520.57 199.78 L 520.5 201.97 L 522.12 203.55 L 522.41 204.09 L 522.35 206.36 L 521.61 208.12 L 517.72 211.99 L 516.75 212.27 L 514.46 213.6 L 513.92 214.47 L 511.95 216.18 L 509.33 217.45 L 509.33 217.45 L 508.88 218.61 L 507.38 220.91 L 506.33 221.58 L 505.54 221.4 L 503.54 221.78 L 503.65 224.18 L 501.79 225.98 L 501.47 225.93 L 500.85 225.31 L 498.69 225.3 L 497.87 226.28 L 497.1 226.64 L 494.37 226.98 L 492.86 228.32 L 492.04 229.54 L 490.34 229.64 L 488.86 230.28 L 485.86 230.39 L 485.04 230.11 L 484.85 229.83 L 484.98 229.17 L 483.27 228.19 L 481.94 227.8 L 480.55 228.35 L 478.42 228.78 L 478.1 228.6 L 477.69 227.67 L 476.19 227.21 L 474.24 227.23 L 471 228.88 L 470.94 229.81 L 473.18 234.25 L 473.3 235.4 L 473.01 237.97 L 472.76 238.88 L 472.04 239.74 L 469.09 244.79 L 466.12 247.21 L 464.77 247.63 L 463.29 247.1 L 461.95 246.93 L 459.75 247.68 L 458.58 248.57 L 457.91 249.44 L 456.77 249.82 L 456.02 251.27 L 455.69 251.48 L 453.58 251.3 L 451.78 251.82 L 447.6 249.97 L 445.83 247.48 L 445.3 245.27 L 444.64 244.23 L 443.2 242.89 L 440.87 242.91 L 440.87 242.91 L 437.93 242.7 L 437.93 242.7 L 437.98 240.78 L 438.24 239.72 L 439.39 237.27 L 439.52 230.91 L 440.28 229.51 L 440.31 229 L 438.58 225.94 L 438.11 222.75 L 437.41 220.81 L 438.14 218.81 L 439.84 217.41 L 441.04 214.93 L 441.17 213.42 L 441.51 212.59 L 441.81 212.38 L 443.25 209.64 L 443.88 207.32 L 444.27 204.35 L 445.25 201.37 L 447.38 199.42 L 450.1 198.66 L 452.71 198.35 L 453.78 197.98 L 455.48 196.45 L 456.53 196.41 L 457.87 195.89 L 460.73 193.32 L 463.07 192.41 L 465.08 190.41 L 465.71 189.54 L 465.71 189.08 L 467.61 187.16 L 468.11 186.94 L 468.95 186.7 L 469.18 187 L 470.3 186.74 L 471.3 186.14 L 472.76 185.95 L 473.77 186.16 L 476.28 187.98 L 477.79 187.88 L 480.23 187.02 L 481.06 186.98 L 481.71 187.26 L 483.99 186.97 L 485.2 185.66 L 485.7 184.2 L 485.82 182.99 L 486.11 182.55 L 486.5 180.35 L 486.37 179.5 L 486.2 179 L 484.59 178.09 L 482.81 176.06 L 482.3 173.76 L 482.19 171.65 L 482.36 169.17 L 486.46 164.74 L 486.67 164.19 L 486.77 161.76 L 486.22 158.78 L 484.64 155.98 L 485.78 153.11 L 486.06 151.64 L 485.68 150.37 L 484.45 149.53 L 484.1 147.61 L 484.87 146.56 L 485.51 146.39 L 486.33 144.41 L 488.22 142.56 L 489.1 140.73 L 489.06 138.94 L 491.98 135.53 L 492.79 135.69 L 496.1 135.23 L 500.23 131.26 L 502.02 128.99 L 502.41 127.46 L 501.77 126.93 L 501.55 126.21 L 502.01 124.77 L 502.01 124.77 L 502.74 124.89 L 504.21 125.76 L 504.72 126.27 L 504.59 126.58 z"
                
                
                
               />
    </g>
</svg>