<?xml version="1.0" encoding="UTF-8"?>
<svg xmlns="http://www.w3.org/2000/svg" viewBox="0 0 1080 1080">
    <g transform="matrix(1 0 0 1 47.59 157)">
        <path id="BR-PR" title="Paraná" 
                fill="#ccc" stroke="#424242" stroke-width="0.5"
                vector-effect="non-scaling-stroke"
                transform=" translate(-353.59, -476.27)"
                d="M 396.75 499.4 L 391.51 499.37 L 391.18 499.81 L 389.44 500.05 L 388.68 499.98 L 388.57 499.59 L 387 500.16 L 385.65 501.59 L 382.3 503.72 L 380.86 503.56 L 379.63 502.94 L 376.5 500.34 L 375.47 499.95 L 374.71 499.94 L 371.87 500.67 L 369.54 500.84 L 368.73 500.81 L 367.31 500.05 L 366.2 500.19 L 364.67 500.84 L 364.08 502.31 L 363.35 503.18 L 361.48 504.16 L 357.91 503.75 L 355.91 504.9 L 355.19 505.67 L 354.5 507.26 L 355.35 510.25 L 354.48 511.11 L 353.56 511.13 L 352.81 511.51 L 352.64 512 L 351.31 510.11 L 347.06 510.24 L 343.3 509.81 L 341.72 508.63 L 341.56 508.22 L 340.53 507.59 L 336.27 507.23 L 330.98 505.55 L 328.64 506.12 L 325.95 506.09 L 323.93 504.68 L 323.61 504.17 L 322.55 503.93 L 322.02 503.92 L 321.31 504.29 L 317.68 504.27 L 317.68 504.27 L 317.46 503.06 L 314.93 498.88 L 314.95 496.29 L 313.96 493.41 L 310.54 491.04 L 309.45 492.17 L 307.33 492.06 L 306.23 492.49 L 305.16 493.39 L 303.7 492.31 L 302.88 492.37 L 302.6 490.17 L 303.26 488.6 L 304.33 487.33 L 305.55 485.15 L 305.61 484.81 L 305.12 484.06 L 305.14 482.82 L 306.04 479.18 L 307.3 476.16 L 307.05 473.86 L 308.33 471.48 L 308.12 470.46 L 307.28 469.58 L 306.97 467.98 L 307.63 466.92 L 308.42 466.38 L 308.42 466.38 L 310.8 464.82 L 311.16 464 L 312.73 456.08 L 313.06 455.73 L 314.17 455.41 L 315.83 454.4 L 316.5 453.72 L 317.95 450.16 L 317.93 449.01 L 318.86 446.68 L 319.97 445.86 L 325.38 443.59 L 325.38 443.59 L 328.64 441.3 L 332.47 441.95 L 336.48 441.84 L 339.75 442.13 L 340.96 441.51 L 341.31 440.91 L 342.04 440.54 L 343.21 440.83 L 344.69 441.61 L 347.21 442.07 L 349.85 443.16 L 351.16 443.29 L 352.23 442.75 L 354.81 442.74 L 355.59 443.74 L 357.34 444.58 L 360.85 445.38 L 361.48 445.89 L 362.19 447.21 L 363.92 447.28 L 364.34 446.94 L 365.99 447.09 L 366.65 447.63 L 371.96 447.76 L 374.93 446.91 L 376.06 448.46 L 379.65 451.29 L 380.54 453.05 L 380.55 455.79 L 380.16 456.37 L 380 457.18 L 380.38 459.02 L 381.68 460.53 L 381.6 462.29 L 381.24 462.85 L 382.73 465.85 L 383.94 467 L 384.61 467.28 L 385.11 467.96 L 385.06 468.85 L 385.98 470.82 L 386.58 471.11 L 386.83 471.55 L 386.58 472.6 L 385.31 474.73 L 385.63 476.77 L 386.23 477.15 L 387.24 477.36 L 389.62 477.24 L 393.04 476.71 L 393.54 477.1 L 395.12 476.91 L 396.71 477.04 L 398.32 478.3 L 398.18 478.71 L 397.29 479.36 L 396.6 482.66 L 396.95 483.44 L 398.02 483.97 L 398.67 483.12 L 399.77 480.36 L 400.53 480.19 L 402.67 480.77 L 402.27 482.72 L 403 486.02 L 404.42 486.6 L 404.58 487.92 L 404.58 487.92 L 403.23 488.94 L 402.62 490.42 L 402.07 490.3 L 402.34 488.36 L 403.78 487.41 L 402.37 487.69 L 401.48 488.18 L 400.61 488.16 L 400.27 487.77 L 399.7 487.6 L 399.16 487.97 L 398.88 488.9 L 399.4 489.7 L 398.67 490.66 L 398.37 490.76 L 395.89 490.23 L 395.1 489.69 L 394.65 489.81 L 394.47 490.71 L 394.81 491.08 L 396.42 491.64 L 397.82 491.39 L 399.95 491.99 L 400.22 492.47 L 399.25 493.15 L 397.71 495.93 L 396.47 496.7 L 394.05 497.27 L 393.85 497.72 L 396.8 497.52 L 396.95 498.71 z"
                
                
                
               />
    </g>
</svg>