<?xml version="1.0" encoding="UTF-8"?>
<svg xmlns="http://www.w3.org/2000/svg" viewBox="0 0 1080 1080">
    <g transform="matrix(1 0 0 1 179.27 113.69)">
        <path id="BR-RJ" title="Rio de Janeiro" 
                fill="#ccc" stroke="#424242" stroke-width="0.5"
                vector-effect="non-scaling-stroke"
                transform=" translate(-485.28, -432.95)"
                d="M 468.35 450.28 L 468.28000000000003 449.5 L 468.66 449.23 L 471.85 449.45000000000005 L 474.44 448.86000000000007 L 471.91 447.31000000000006 L 470.51000000000005 446.81000000000006 L 467.70000000000005 447.49000000000007 L 466.34000000000003 449.0900000000001 L 465.31000000000006 449.4100000000001 L 464.61000000000007 449.36000000000007 L 463.26000000000005 447.2100000000001 L 462.78000000000003 447.2100000000001 L 461.88000000000005 447.6300000000001 L 460.9200000000001 448.6900000000001 L 457.7700000000001 449.4900000000001 L 457.4300000000001 450.40000000000015 L 457.2400000000001 452.3000000000001 L 459.4300000000001 452.4300000000001 L 460.5000000000001 453.4400000000001 L 459.35000000000014 454.5200000000001 L 458.41000000000014 454.3500000000001 L 456.9900000000001 454.5200000000001 L 456.9900000000001 454.5200000000001 L 456.5100000000001 454.2600000000001 L 454.8800000000001 452.5300000000001 L 454.8300000000001 452.12000000000006 L 455.9200000000001 448.62000000000006 L 457.01000000000005 447.4700000000001 L 459.36000000000007 446.4600000000001 L 459.86000000000007 446.61000000000007 L 462.63000000000005 446.25000000000006 L 464.13000000000005 445.5400000000001 L 465.78000000000003 443.3900000000001 L 465.03000000000003 441.7500000000001 L 463.33000000000004 441.7400000000001 L 460.18000000000006 442.2700000000001 L 458.4100000000001 441.8800000000001 L 457.18000000000006 440.29000000000013 L 456.62000000000006 439.1200000000001 L 455.3500000000001 438.5800000000001 L 455.3500000000001 438.5800000000001 L 456.0300000000001 438.0900000000001 L 458.4500000000001 437.3500000000001 L 461.3600000000001 436.0100000000001 L 463.9400000000001 435.8400000000001 L 464.4400000000001 436.11000000000007 L 466.16000000000014 435.3400000000001 L 467.21000000000015 434.5700000000001 L 471.3000000000001 432.7800000000001 L 471.8200000000001 432.7100000000001 L 472.1800000000001 433.0200000000001 L 475.3800000000001 432.9500000000001 L 476.6300000000001 432.7800000000001 L 478.2600000000001 431.8400000000001 L 478.8300000000001 431.7800000000001 L 481.36000000000007 432.05000000000007 L 481.8500000000001 432.2200000000001 L 481.8300000000001 432.6900000000001 L 483.2100000000001 432.4900000000001 L 492.7200000000001 427.96000000000015 L 495.25000000000006 426.97000000000014 L 495.46000000000004 426.45000000000016 L 495.18000000000006 425.84000000000015 L 493.74000000000007 425.71000000000015 L 493.83000000000004 424.96000000000015 L 495.72 421.25000000000017 L 498.08000000000004 415.21000000000015 L 497.35 414.50000000000017 L 497.91 414.01000000000016 L 499.15000000000003 413.7400000000002 L 501.68 411.38000000000017 L 501.68 411.38000000000017 L 503.61 412.14000000000016 L 504.28000000000003 416.85000000000014 L 506.78000000000003 417.98000000000013 L 511.11 418.9900000000001 L 514.1 418.6200000000001 L 515.72 419.6800000000001 L 515.72 419.6800000000001 L 515.64 420.9500000000001 L 514.6999999999999 422.5600000000001 L 514.4799999999999 424.6900000000001 L 515.6199999999999 431.4700000000001 L 515.1199999999999 432.1500000000001 L 512.0399999999998 433.9000000000001 L 506.0699999999998 435.8400000000001 L 503.23999999999984 437.5600000000001 L 499.73999999999984 441.2500000000001 L 499.6299999999998 442.91000000000014 L 499.9399999999998 444.10000000000014 L 499.74999999999983 445.72000000000014 L 499.0199999999998 447.20000000000016 L 497.1999999999998 447.71000000000015 L 490.6499999999998 447.54000000000013 L 484.8599999999998 448.2400000000001 L 482.4699999999998 447.78000000000014 L 481.9799999999998 447.40000000000015 L 481.9199999999998 446.72000000000014 L 482.94999999999976 445.2400000000001 L 483.6199999999998 443.79000000000013 L 483.5299999999998 443.17000000000013 L 482.74999999999983 442.9900000000001 L 479.9599999999998 444.1400000000001 L 479.6999999999998 444.8300000000001 L 480.0099999999998 445.6200000000001 L 481.3899999999998 446.79000000000013 L 481.6399999999998 447.76000000000016 L 481.04999999999984 448.28000000000014 L 479.41999999999985 448.79000000000013 L 477.84999999999985 448.76000000000016 L 469.80999999999983 449.83000000000015 L 468.35 450.28 z M 463.24 452.27 L 462.57 451.29999999999995 L 464.68 449.74999999999994 L 466.54 450.68999999999994 L 466.97 451.38999999999993 L 464.51000000000005 451.88999999999993 L 464.1 451.5399999999999 L 463.63 451.5399999999999 L 463.24 452.27 z"
                
                
                
               />
    </g>
</svg>