<?xml version="1.0" encoding="UTF-8"?>
<svg xmlns="http://www.w3.org/2000/svg" viewBox="0 0 1080 1080">
    <g transform="matrix(1 0 0 1 274.86 -145.63)">
        <path id="BR-RN" title="Rio Grande do Norte" 
                fill="#ccc" stroke="#424242" stroke-width="0.5"
                vector-effect="non-scaling-stroke"
                transform=" translate(-580.87, -173.63)"
                d="M 609.29 182.91 L 608.36 183.15 L 604.86 182.94 L 603.82 183.34 L 601.36 182.24 L 599.19 181.94 L 593.36 182.33 L 592.83 181.98 L 589.41 181.58 L 588.79 181.09 L 588.89 180.09 L 588.47 179.7 L 587.09 179.75 L 585.27 181.1 L 584.96 182.58 L 585.68 183.36 L 586.21 184.89 L 585.2 184.57 L 584.72 185.16 L 584.88 186.58 L 585.35 187.52 L 584.8 188.73 L 584.3 189.47 L 581.95 190.4 L 581.12 189.66 L 581.64 188.12 L 580.75 186.95 L 578.8 186.65 L 577.03 186.73 L 573.88 187.99 L 573.59 187.76 L 573.28 186.38 L 572.96 186.15 L 569.43 185.63 L 569.51 183.91 L 569.72 183.6 L 570.57 183.35 L 570.98 182.97 L 571.36 181.23 L 571.8 180.27 L 574.79 177.06 L 574.78 175.87 L 574.25 175.43 L 573.61 175.35 L 570.35 176.39 L 568.92 176.51 L 565.74 177.72 L 565.33 178.67 L 565.23 179.71 L 564.41 180.42 L 561.18 182.08 L 560.02 183.21 L 557.14 182.6 L 556.24 182.18 L 554.31 180.54 L 553.74 181 L 553.74 181 L 553.08 181.38 L 552.44 181.21 L 552.78 179.24 L 554.19 176.99 L 555.03 176.11 L 555.54 176.04 L 556.32 176.55 L 557.35 176.29 L 557.92 175.19 L 559.38 173.68 L 560.78 171.24 L 560.63 170.5 L 561.28 168.83 L 562.15 168.26 L 562.99 167.14 L 566.29 160.45 L 568.9 158.44 L 573.79 156.85 L 573.79 156.85 L 574.26 157.61 L 575.12 158.36 L 578.25 158.35 L 579.47 158.76 L 581.16 160.51 L 582.48 161.01 L 585.81 160.69 L 588.69 161.21 L 591.23 160.97 L 593.56 160.24 L 598.06 161.16 L 599.33 161.2 L 601.28 162.06 L 602.3 162.88 L 602.94 163.82 L 605.25 168.56 L 605.75 170.35 L 605.71 171.1 L 607.19 176.48 L 607.4 178.16 L 608.12 178.7 L 609.08 181.39 z"
                
                
                
               />
    </g>
</svg>