<?xml version="1.0" encoding="UTF-8"?>
<svg xmlns="http://www.w3.org/2000/svg" viewBox="0 0 1080 1080">
    <g transform="matrix(1 0 0 1 -139.57 -68.08)">
        <path id="BR-RO" title="Rondônia" 
                fill="#ccc" stroke="#424242" stroke-width="0.5"
                vector-effect="non-scaling-stroke"
                transform=" translate(-166.43, -251.18)"
                d="M 187.32 290.95 L 186.03 289.5 L 185.59 287.62 L 184.03 287.1 L 183.17 287.42 L 181.36 287.5 L 177.29 285.69 L 177.28 285.29 L 176.62 284.68 L 175.35 285.27 L 173.37 283.59 L 171.85 282.62 L 170.99 281.16 L 170.71 279.77 L 169.67 279.38 L 167.9 280.5 L 166.68 280.47 L 165.27 279.67 L 164.4 278.34 L 161.27 276.76 L 159.31 276.59 L 158.17 277.13 L 157.27 277.98 L 155.84 277.81 L 155.53 277.51 L 153.39 277 L 150.33 276.72 L 149.57 276.29 L 148.39 275.1 L 148.09 273.13 L 146.51 272.64 L 144.62 271.67 L 143.8 269.95 L 143.51 269.75 L 140.79 269.47 L 140.41 269.12 L 139.57 265.41 L 138.69 264.52 L 138.21 265.68 L 137.55 265.36 L 137.28 264.72 L 137.9 263.19 L 137.06 261.67 L 135.7 261.28 L 134.44 257.81 L 134.27 256.15 L 135.82 253.24 L 135.61 251.58 L 134.45 249.61 L 133.7 247.45 L 133.64 245.16 L 134.26 244.66 L 134.64 243.29 L 135.68 242.24 L 136.04 240.77 L 135.8 239.28 L 135.38 238.39 L 135.29 236.86 L 135.83 235.21 L 134.66 233.03 L 133.64 232.65 L 132.55 233.63 L 132.49 234.14 L 131.65 235.1 L 131.08 235.1 L 128.9 234.08 L 123.72 234.16 L 118.11 235.94 L 116.42 235.93 L 114.94 236.41 L 114.94 236.41 L 111.97 235.15 L 111.97 235.15 L 115.23 232.59 L 117.15 232.01 L 118.7 230.2 L 118.85 229.64 L 118.69 228.35 L 122.65 228.61 L 125.52 228.28 L 126.24 228.65 L 128.55 230.98 L 128.92 230.96 L 130.14 230.17 L 130.27 229.45 L 130.68 228.92 L 131.76 228.42 L 132.53 228.55 L 133.9 228.16 L 135.2 226.95 L 137.04 225.93 L 137.42 226.02 L 138.06 228.28 L 138.74 228.81 L 139.42 228.73 L 141.96 225.57 L 141.7 223.82 L 142.23 222.98 L 143.98 221.72 L 144.44 221.74 L 145.28 222.29 L 147.07 222.39 L 148.27 221.32 L 150.4 220.94 L 154.27 221.4 L 154.03 219.94 L 154.14 218.13 L 156.2 216.92 L 157.01 215.77 L 157.37 214.75 L 157.2 214.3 L 156.3 213.6 L 156.35 212.93 L 157.54 211.34 L 160.02 210.81 L 160.28 210.59 L 160.19 209.42 L 161.91 208.92 L 163.29 206.36 L 174.08 206.3 L 176.23 207.43 L 176.68 207.92 L 177.48 209.83 L 178.81 211.1 L 181.35 212.08 L 182.6 215.35 L 183.06 215.56 L 184.04 215.43 L 184.66 215.63 L 185.34 218.51 L 188.58 219.99 L 189.26 219.8 L 189.8 218.06 L 191.72 216.98 L 193.11 217.26 L 193.47 217.64 L 193.43 218.34 L 193.43 218.34 L 194.83 219.31 L 195.43 220.55 L 194.67 221.97 L 193.38 226.96 L 193.44 227.31 L 194.22 227.78 L 194.48 228.39 L 194.63 229.78 L 195.46 232.05 L 194.52 233.72 L 194.9 235.65 L 193.9 239.17 L 193.87 239.97 L 194.14 241.73 L 195.64 244.48 L 194.74 253.48 L 211.9 253.53 L 211.66 254.09 L 212.88 255.2 L 216.38 255.11 L 217.49 255.22 L 218.56 255.65 L 219.97 259.24 L 219.8 259.99 L 218.4 261.74 L 217.04 262.82 L 216.9 264.14 L 217.33 267.39 L 217.91 267.9 L 218.81 267.87 L 220.34 271.21 L 220.3 273.26 L 220.88 274.75 L 220.81 276.46 L 220.25 278.7 L 218.59 280.71 L 218.07 282.96 L 217.49 283.8 L 217.06 284.21 L 215.42 284.74 L 214.49 285.82 L 213.06 289.6 L 212.54 292.05 L 208.43 294.62 L 206.96 296.05 L 206.96 296.05 L 206.22 296.01 L 203.63 294.46 L 202.36 293.03 L 195.28 293.99 L 193.96 293.56 L 193.71 293.26 L 190.33 293.92 L 189.85 293.76 L 189.33 292.41 z"
                
                
                
               />
    </g>
</svg>