<?xml version="1.0" encoding="UTF-8"?>
<svg xmlns="http://www.w3.org/2000/svg" viewBox="0 0 1080 1080">
    <g transform="matrix(1 0 0 1 -116.08 -267.27)">
        <path id="BR-RR" title="Roraima" 
                fill="#ccc" stroke="#424242" stroke-width="0.5"
                vector-effect="non-scaling-stroke"
                transform=" translate(-189.92, -51.99)"
                d="M 234.61 61.4 L 236.21 78.37 L 236.21 78.37 L 217.72 78.3 L 217.75 78.98 L 215.42 82.24 L 213.76 85.27 L 213.69 86.4 L 212.54 89.04 L 212.43 89.7 L 212.66 90.43 L 213.8 91.84 L 213.78 92.37 L 213.36 92.76 L 211.33 93.31 L 209.92 94.72 L 208.67 95.18 L 206.85 94.95 L 205.93 92.44 L 204.06 90.4 L 201.23 89.47 L 199.63 89.53 L 199.08 90.42 L 196.99 91.13 L 195.71 91.82 L 194.69 93.08 L 193.87 96.05 L 194.24 97.85 L 193.99 99.58 L 193.24 101.87 L 193.68 103.98 L 191.32 102.94 L 189.98 103.36 L 189.45 103.29 L 188.41 101.25 L 186.93 99.6 L 184.97 98.29 L 184.45 98.25 L 179.44 93.83 L 179.58 92.69 L 181.42 93.02 L 182.56 91.7 L 182.62 91.12 L 181.49 86.79 L 180.91 85.89 L 179.69 85.05 L 178.81 82.88 L 178.52 77.9 L 179.09 76.94 L 179.86 73.9 L 179.2 72.32 L 178.84 70.73 L 180.46 69.27 L 180.41 68.82 L 179.54 67.7 L 179.35 65.44 L 177.69 60.68 L 174.96 56.94 L 175.67 55.44 L 176.58 52.12 L 176.09 51.46 L 174.14 50.51 L 172.78 50.4 L 171.9 50.61 L 170.93 50.24 L 169.72 49.07 L 169.66 48.11 L 169.03 48 L 167.9 48.42 L 167.29 48.41 L 166.54 48.07 L 165.82 47.29 L 165.82 47.29 L 166.12 46.83 L 166.35 44.55 L 166.05 44.33 L 162.68 44.1 L 158.93 44.24 L 155.62 43.54 L 155.42 42.94 L 156.22 41.18 L 156.34 39.7 L 155.61 37.93 L 153.67 34.39 L 152.94 32.33 L 152.47 28.61 L 153.26 27.13 L 153.18 26.17 L 151.34 24.17 L 149.18 23.11 L 146.37 20.33 L 145.31 18.52 L 145.02 17.56 L 143.88 16.91 L 143.63 16.52 L 143.66 15.68 L 143.95 15.35 L 144.85 15.42 L 145.97 16.08 L 146.91 17.81 L 147.52 17.9 L 150.91 17.4 L 152.26 17.5 L 154.17 18.09 L 154.78 19.29 L 155.33 21.22 L 155.87 21.57 L 156.83 21.49 L 157.57 20.84 L 158.52 20.44 L 161.7 20.6 L 162.17 20.65 L 163.48 21.86 L 164.08 22.01 L 164.6 21.87 L 165.21 20.31 L 166.52 20.45 L 167.97 21.38 L 171.9 25.95 L 172.95 26.52 L 173.66 26.63 L 175.17 25.95 L 175.91 24.82 L 176.01 23.98 L 175.18 21.22 L 175.54 19.48 L 176 19.2 L 177.93 19.15 L 178.94 18.05 L 180.49 16.96 L 181.24 17.01 L 185.14 18.35 L 185.73 18.18 L 186.53 17.46 L 187.56 17.16 L 188.69 17.51 L 189.72 17.3 L 191.06 16.02 L 192.06 15.77 L 193.21 16 L 194.32 15.93 L 195 15.08 L 195.05 13.73 L 198.08 11.92 L 200.41 12.11 L 203.17 11.72 L 204.06 10.59 L 204.15 9.88 L 204.74 8.76 L 205.49 8.63 L 207.34 7.73 L 208.44 6.69 L 209.55 4.98 L 208.35 1.42 L 207.18 1.06 L 207.82 0.88 L 209.25 0.95 L 210.05 1.27 L 213.62 1.17 L 214.68 0.22 L 215.42 0 L 216.79 0.42 L 217.32 1.73 L 218.36 2.53 L 218.84 3.9 L 218.17 8.8 L 217.45 10.18 L 216.2 10.88 L 216.26 11.71 L 217.87 12.12 L 219.49 11.9 L 221.84 12.71 L 223.66 13.81 L 222.78 15.24 L 222.77 16.39 L 225.11 19.81 L 225.31 21.36 L 223.8 24.28 L 221.92 25.69 L 221.2 27.19 L 221.47 27.58 L 221.53 29.75 L 220.06 32.16 L 219.16 34.93 L 218.85 37.5 L 218.76 40.17 L 219.74 42.04 L 220.25 43.8 L 220.24 45.2 L 221.81 46.23 L 222.71 46.43 L 222.84 47.11 L 222.38 52.26 L 222.5 53 L 224.31 53.29 L 223.65 54.46 L 224.11 54.96 L 226.26 55.7 L 227.72 57.62 L 230.38 60.36 z"
                
                
                
               />
    </g>
</svg>