<?xml version="1.0" encoding="UTF-8"?>
<svg xmlns="http://www.w3.org/2000/svg" viewBox="0 0 1080 1080">
    <g transform="matrix(1 0 0 1 11.62 259.25)">
        <path id="BR-RS" title="Rio Grande do Sul" 
                fill="#ccc" stroke="#424242" stroke-width="0.5"
                vector-effect="non-scaling-stroke"
                transform=" translate(-317.63, -578.5)"
                d="M 321.99 638.52 L 321.63 638.53 L 319.69 637.42 L 319.49 636.96 L 320.01 632.69 L 319.55 628.44 L 319.7 627.37 L 320.33 626.13 L 323.17 623.75 L 324 622.19 L 326.3 619.63 L 324.84 617.98 L 323.77 617.36 L 321.52 616.76 L 319.2 614.51 L 317.99 612.89 L 317.89 611.3 L 317.46 610.12 L 316.23 608.09 L 314.17 605.85 L 313.5 605.26 L 311.11 604.05 L 309.66 604.26 L 307.76 602.75 L 306.24 601.12 L 304.99 600.34 L 304.85 598.64 L 302.95 596.48 L 299.63 596.02 L 298.71 595.55 L 296.98 593.89 L 295.22 594.02 L 293.05 592.64 L 291.14 588.93 L 290.03 587.44 L 287.5 585.32 L 286.8 585.4 L 286.13 587.19 L 283.54 589.43 L 280.87 589.55 L 280.97 586.69 L 281.37 585.41 L 280.98 584.41 L 277.33 580.12 L 274.96 578.35 L 272.78 576.29 L 271.03 574.18 L 268.34 571.97 L 266.44 571.83 L 264.29 572.04 L 263.15 573.4 L 263.09 574.36 L 262.06 575.33 L 260.95 575.35 L 260.37 574.87 L 257.21 575.01 L 256.56 574.53 L 256.4 573.62 L 255.91 573.4 L 256.76 573.18 L 257.8 572.46 L 260.32 569.69 L 260.43 567.85 L 261.03 566.6 L 261.85 566.15 L 263.14 566.08 L 263.78 565.82 L 264.7 564.82 L 270.15 558.34 L 270.78 556.92 L 270.95 555.81 L 271.77 554.74 L 272.97 553.89 L 274.34 553.48 L 276.3 549.26 L 276.4 548.65 L 276.71 548.28 L 278.35 547.42 L 279.98 545.62 L 280.83 544.47 L 281.34 543.18 L 282.68 541.08 L 283.61 540.79 L 285.18 540.97 L 285.73 541.76 L 286.2 540.48 L 285.99 539.9 L 284.64 539.08 L 284.59 538.72 L 284.94 538.39 L 286.02 538.01 L 286.84 537.05 L 289.63 536.1 L 290.68 535.03 L 290.78 534.11 L 291.6 533.2 L 293.81 532.05 L 296.28 531.65 L 298.05 529.84 L 298.2 528.78 L 299.52 526.42 L 299.85 526.38 L 299.9 526.74 L 300.19 526.94 L 301.52 526.77 L 303.96 525.64 L 306.64 525.05 L 307.85 524.48 L 309.95 522.13 L 310.45 522.14 L 311.12 521.75 L 312.13 520.4 L 314.44 519.67 L 314.74 520.05 L 314.74 520.05 L 318.26 520.44 L 321.52 519.29 L 322.08 518.48 L 323.43 519.06 L 323.28 519.98 L 326.36 519.95 L 327.99 520.94 L 330.55 520.57 L 332.47 521.72 L 335.05 521.31 L 336.59 521.49 L 339.39 521.33 L 341.65 522.25 L 344.13 523.65 L 345.13 526.09 L 346.72 526.28 L 346.81 525.8 L 348.62 525.45 L 354.18 528.99 L 355.55 530.54 L 356.26 530.51 L 357.82 531.49 L 360.85 534.98 L 362.49 537.19 L 362.97 538.67 L 365.14 541.33 L 366.31 541.88 L 373 542.94 L 375.11 542.54 L 378.46 542.88 L 379.34 545.22 L 377.26 546.8 L 375.99 547.21 L 375.26 549.07 L 375.48 551.26 L 375.1 552.82 L 374.58 554.12 L 373.4 554.32 L 372.11 556.01 L 372.08 557.42 L 373.88 558.59 L 374.15 558.39 L 373.87 557.42 L 373.88 556.46 L 375.37 555.64 L 376.95 556.28 L 377.68 557.19 L 378.85 558.04 L 379.3 558.01 L 379.3 558.01 L 377.9 559.74 L 374 566.78 L 369.79 578.38 L 363.49 588.86 L 358.05 595.52 L 351.54 601.48 L 345.45 605.16 L 342.35 609.47 L 342.17 609.04 L 342.82 607.46 L 343.16 605.28 L 341.98 603.57 L 342.08 603.15 L 343.01 602.98 L 344.02 603.38 L 344.58 603.96 L 345.6 604 L 348.18 602.59 L 349 601.91 L 351.85 598.2 L 352.6 597.51 L 353.05 597.7 L 354.07 597.51 L 355.12 596.67 L 356.05 595.4 L 356.42 593.92 L 356.6 592.99 L 356.37 590.89 L 356.57 589.52 L 358.14 589.45 L 358.88 589.75 L 359.15 590.58 L 359.5 590.32 L 359.21 588.92 L 359.72 586.85 L 360.2 586.28 L 362.94 584.69 L 363.67 583.61 L 364.14 580.86 L 363.93 578.58 L 364.49 577.9 L 364.99 578.7 L 365.36 578.73 L 365.79 578.31 L 366.26 575.23 L 366.16 574.79 L 365.21 573.57 L 364.54 573.54 L 364.28 574.23 L 364.45 574.62 L 364.31 575.19 L 363.96 575.39 L 362.45 575.37 L 360.44 575.77 L 360.1 577.38 L 359.57 577.43 L 358.76 576.99 L 358.86 575.28 L 358.04 574.39 L 357 574.72 L 356.4 574.24 L 355.67 572.98 L 355.27 571.53 L 355.39 570.96 L 354.75 570.27 L 354.14 572.98 L 354.58 575.23 L 355.83 577.34 L 355.26 578.15 L 354.52 580.69 L 354.9 583.72 L 354.72 584.49 L 354.24 584.12 L 354.5 583.88 L 354.47 583.17 L 354 581.89 L 353.55 581.5 L 353.02 582.16 L 352.99 583.53 L 351.58 586.8 L 351.53 588.69 L 351.75 589.21 L 351.03 589.91 L 349.42 590.55 L 348.81 592.13 L 344.72 593.7 L 344 594.23 L 343.47 595.82 L 343.37 598.09 L 342.4 600.36 L 340.04 601.66 L 339.93 603.42 L 340.41 604.25 L 340.66 605.27 L 339.71 605.83 L 339.46 607.34 L 339.89 607.94 L 340.57 607.8 L 341.87 608.43 L 342.02 609.34 L 339.89 610.99 L 337.57 615.51 L 335.64 622.39 L 333.63 626.88 L 331.95 629.4 L 324.16 636.93 z"
                
                
                
               />
    </g>
</svg>