<?xml version="1.0" encoding="UTF-8"?>
<svg xmlns="http://www.w3.org/2000/svg" viewBox="0 0 1080 1080">
    <g transform="matrix(1 0 0 1 51.41 209.71)">
        <path id="BR-SC" title="Santa Catarina" 
                fill="#ccc" stroke="#424242" stroke-width="0.5"
                vector-effect="non-scaling-stroke"
                transform=" translate(-357.4, -528.97)"
                d="M 379.3 558.01 L 378.85 558.04 L 377.68 557.1899999999999 L 376.95 556.27 L 375.36 555.64 L 373.88 556.46 L 373.87 557.4200000000001 L 374.15 558.3900000000001 L 373.88 558.5900000000001 L 372.08 557.4200000000002 L 372.12 556.0100000000002 L 373.4 554.3200000000002 L 374.58 554.1200000000001 L 375.10999999999996 552.8100000000002 L 375.47999999999996 551.2600000000002 L 375.25999999999993 549.0700000000002 L 375.98999999999995 547.2100000000002 L 377.25999999999993 546.7900000000002 L 379.3399999999999 545.2100000000002 L 378.4599999999999 542.8700000000001 L 375.1099999999999 542.5300000000001 L 372.9999999999999 542.9300000000001 L 366.3099999999999 541.8700000000001 L 365.14999999999986 541.3300000000002 L 362.97999999999985 538.6700000000002 L 362.48999999999984 537.1900000000002 L 360.85999999999984 534.9800000000001 L 357.82999999999987 531.4900000000001 L 356.2599999999999 530.5000000000001 L 355.5499999999999 530.5300000000001 L 354.1799999999999 528.9800000000001 L 348.6199999999999 525.4400000000002 L 346.8099999999999 525.7800000000002 L 346.7199999999999 526.2600000000002 L 345.1199999999999 526.0700000000002 L 344.1199999999999 523.6300000000001 L 341.64999999999986 522.2400000000001 L 339.3799999999999 521.3100000000002 L 336.58999999999986 521.4700000000001 L 335.04999999999984 521.2900000000002 L 332.45999999999987 521.7000000000002 L 330.54999999999984 520.5500000000002 L 327.97999999999985 520.9100000000002 L 326.34999999999985 519.9300000000002 L 323.26999999999987 519.9600000000002 L 323.41999999999985 519.0300000000002 L 322.0699999999998 518.4500000000002 L 321.5099999999998 519.2600000000001 L 318.24999999999983 520.4200000000001 L 314.72999999999985 520.0300000000001 L 314.72999999999985 520.0300000000001 L 316.17999999999984 517.1000000000001 L 316.90999999999985 515.0100000000001 L 316.32999999999987 511.7600000000001 L 316.7399999999999 508.5500000000001 L 316.6999999999999 506.0000000000001 L 317.65999999999985 504.2500000000001 L 317.65999999999985 504.2500000000001 L 321.28999999999985 504.2700000000001 L 321.99999999999983 503.8900000000001 L 322.5299999999998 503.9000000000001 L 323.5899999999998 504.1400000000001 L 323.8999999999998 504.6500000000001 L 325.9299999999998 506.0600000000001 L 328.6099999999998 506.0900000000001 L 330.94999999999976 505.5100000000001 L 336.2399999999998 507.1900000000001 L 340.4999999999998 507.5500000000001 L 341.51999999999975 508.1800000000001 L 341.68999999999977 508.59000000000015 L 343.25999999999976 509.77000000000015 L 347.02999999999975 510.19000000000017 L 351.27999999999975 510.0600000000002 L 352.60999999999973 511.96000000000015 L 352.78999999999974 511.46000000000015 L 353.52999999999975 511.08000000000015 L 354.44999999999976 511.0600000000002 L 355.31999999999977 510.20000000000016 L 354.46999999999974 507.21000000000015 L 355.15999999999974 505.63000000000017 L 355.87999999999977 504.8500000000002 L 357.87999999999977 503.7100000000002 L 361.44999999999976 504.1100000000002 L 363.31999999999977 503.14000000000016 L 364.0499999999998 502.27000000000015 L 364.63999999999976 500.79000000000013 L 366.16999999999973 500.14000000000016 L 367.27999999999975 500.00000000000017 L 368.69999999999976 500.76000000000016 L 369.50999999999976 500.79000000000013 L 371.83999999999975 500.6200000000001 L 374.6799999999997 499.8900000000001 L 375.4299999999997 499.9000000000001 L 376.46999999999974 500.30000000000007 L 379.58999999999975 502.9000000000001 L 380.81999999999977 503.5200000000001 L 382.25999999999976 503.6800000000001 L 385.6099999999998 501.5500000000001 L 386.9599999999998 500.1200000000001 L 388.5199999999998 499.5500000000001 L 388.6399999999998 499.9400000000001 L 389.3999999999998 500.0100000000001 L 391.1399999999998 499.7800000000001 L 391.4699999999998 499.3400000000001 L 396.7099999999998 499.37000000000006 L 396.7099999999998 499.37000000000006 L 396.3199999999998 500.69000000000005 L 396.8299999999998 502.34000000000003 L 396.7599999999998 502.73 L 395.2599999999998 503.87 L 394.2799999999998 503.39 L 393.4599999999998 500.86 L 393.4399999999998 501.98 L 394.0299999999998 504.70000000000005 L 395.7399999999998 506.36000000000007 L 396.2999999999998 507.31000000000006 L 395.2899999999998 509.6000000000001 L 395.12999999999977 511.9200000000001 L 395.2299999999998 512.35 L 395.9899999999998 513.08 L 396.2499999999998 518.94 L 396.5599999999998 519.49 L 396.9899999999998 519.69 L 397.75999999999976 519.1800000000001 L 398.1099999999998 519.9000000000001 L 398.2099999999998 520.7700000000001 L 397.7399999999998 520.83 L 397.3099999999998 520.5500000000001 L 396.1199999999998 521.1800000000001 L 395.7799999999998 525.0200000000001 L 396.3499999999998 527.6100000000001 L 395.7799999999998 528.3600000000001 L 396.0899999999998 530.2900000000001 L 396.99999999999983 532.1700000000001 L 396.1399999999998 534.5100000000001 L 395.61999999999983 538.5200000000001 L 393.90999999999985 543.2 L 393.5699999999999 543.1 L 393.20999999999987 542.34 L 393.41999999999985 541.37 L 392.49999999999983 540.19 L 392.23999999999984 540.5200000000001 L 392.41999999999985 542.95 L 393.57999999999987 543.7800000000001 L 392.65999999999985 545.44 L 391.01999999999987 546.09 L 386.8899999999999 549.13 L 384.08999999999986 551.6899999999999 L 380.33999999999986 556.13 L 379.3 558.01 z M 397.18 531.46 L 397.03000000000003 530.99 L 397.28000000000003 529.24 L 398.04 526.84 L 397.64000000000004 525.6600000000001 L 397.80000000000007 524.6400000000001 L 399.20000000000005 523.8800000000001 L 399.4200000000001 523.94 L 400.0800000000001 524.8800000000001 L 399.5400000000001 527.44 L 398.7200000000001 528.3000000000001 L 398.1300000000001 529.5200000000001 L 398.3300000000001 530.69 L 397.18 531.46 z M 396.73 507.09 L 394.86 505.07 L 397.41 502.63 L 397.66 502.67 L 398.31 503.72 L 397.45 505.04 L 396.73 507.09 z"
                
                
                
               />
    </g>
</svg>