<?xml version="1.0" encoding="UTF-8"?>
<svg xmlns="http://www.w3.org/2000/svg" viewBox="0 0 1080 1080">
    <g transform="matrix(1 0 0 1 266.49 -72.82)">
        <path id="BR-SE" title="Sergipe" 
                fill="#ccc" stroke="#424242" stroke-width="0.5"
                vector-effect="non-scaling-stroke"
                transform=" translate(-572.49, -246.44)"
                d="M 569.94 261.69 L 567.04 262.58 L 565.49 261.94 L 564.95 261.6 L 564.47 260.88 L 562.55 259.96 L 561.95 259.44 L 561.83 259.03 L 562.17 258.64 L 562.3 257.22 L 562.15 256.83 L 560.72 255.32 L 560.2 253.83 L 559.11 253.16 L 558.15 251.56 L 558.13 250.79 L 558.72 249.21 L 559.04 248.91 L 560.74 248.92 L 561.87 249.67 L 564.42 248.68 L 565.11 248.13 L 565.41 247.55 L 564.65 244.8 L 564.73 243.92 L 565.39 242.3 L 565.47 239.19 L 564.72 238.04 L 562.73 236.09 L 561.46 233.59 L 561.24 231.45 L 561.91 230.3 L 561.91 230.3 L 568.37 233.28 L 572.05 234.23 L 577.47 237.3 L 578.77 239.75 L 580.53 241.2 L 582.19 241.99 L 582.65 242.02 L 586.24 244.25 L 586.84 245.56 L 586.84 245.56 L 584.46 246.32 L 579.89 249.26 L 578.92 250.15 L 577.37 252.36 L 577.05 252.34 L 577.16 251.24 L 576.11 249.42 L 575.12 249.58 L 575.46 250.74 L 576.7 250.74 L 576.93 250.98 L 576.41 252.95 L 575.14 255.04 L 574.61 254.69 L 574.24 254.02 L 573.25 253.86 L 573.45 254.54 L 574.58 255.16 L 574.32 256.93 L 573.46 258.08 L 572.53 260.11 L 571.75 260.26 L 571.45 259.8 L 571.93 258.4 L 572.34 258.27 L 572.65 257.84 L 573.02 256.8 L 572.21 256.43 L 572.31 257.11 L 571.86 258.24 L 571.38 258.74 L 571.12 259.83 L 571.4 260.55 L 571.14 261.07 z"
                
                
                
               />
    </g>
</svg>