<?xml version="1.0" encoding="UTF-8"?>
<svg xmlns="http://www.w3.org/2000/svg" viewBox="0 0 1080 1080">
    <g transform="matrix(1 0 0 1 89.6 122.15)">
        <path id="BR-SP" title="São Paulo" 
                fill="#ccc" stroke="#424242" stroke-width="0.5"
                vector-effect="non-scaling-stroke"
                transform=" translate(-395.6, -441.42)"
                d="M 404.58 487.92 L 404.41999999999996 486.59000000000003 L 402.99999999999994 486.02000000000004 L 402.2699999999999 482.72 L 402.6699999999999 480.77000000000004 L 400.5299999999999 480.19000000000005 L 399.7699999999999 480.36000000000007 L 398.6699999999999 483.13000000000005 L 398.0099999999999 483.9800000000001 L 396.9499999999999 483.4500000000001 L 396.59999999999985 482.67000000000013 L 397.28999999999985 479.3700000000001 L 398.17999999999984 478.7100000000001 L 398.3199999999998 478.3100000000001 L 396.7099999999998 477.04000000000013 L 395.11999999999983 476.91000000000014 L 393.53999999999985 477.10000000000014 L 393.03999999999985 476.72000000000014 L 389.6299999999998 477.2500000000001 L 387.24999999999983 477.3700000000001 L 386.23999999999984 477.16000000000014 L 385.6399999999998 476.77000000000015 L 385.30999999999983 474.73000000000013 L 386.5899999999998 472.6100000000001 L 386.8399999999998 471.5600000000001 L 386.5899999999998 471.1200000000001 L 385.9899999999998 470.8200000000001 L 385.06999999999977 468.8500000000001 L 385.12999999999977 467.9600000000001 L 384.62999999999977 467.2800000000001 L 383.95999999999975 466.99000000000007 L 382.7499999999998 465.8500000000001 L 381.25999999999976 462.8400000000001 L 381.6199999999998 462.2900000000001 L 381.69999999999976 460.5300000000001 L 380.39999999999975 459.0100000000001 L 380.01999999999975 457.17000000000013 L 380.18999999999977 456.3600000000001 L 380.57999999999976 455.78000000000014 L 380.5599999999998 453.04000000000013 L 379.6699999999998 451.28000000000014 L 376.0799999999998 448.45000000000016 L 374.9499999999998 446.90000000000015 L 371.9799999999998 447.76000000000016 L 366.6699999999998 447.63000000000017 L 366.00999999999976 447.09000000000015 L 364.3599999999998 446.95000000000016 L 363.93999999999977 447.29000000000013 L 362.21999999999974 447.22000000000014 L 361.4999999999997 445.90000000000015 L 360.8699999999997 445.39000000000016 L 357.35999999999973 444.59000000000015 L 355.60999999999973 443.75000000000017 L 354.82999999999976 442.75000000000017 L 352.2499999999998 442.76000000000016 L 351.1799999999998 443.3000000000002 L 349.8599999999998 443.1700000000002 L 347.2199999999998 442.0800000000002 L 344.6899999999998 441.62000000000023 L 343.2099999999998 440.8300000000002 L 342.0399999999998 440.5400000000002 L 341.3099999999998 440.9100000000002 L 340.9699999999998 441.5100000000002 L 339.7599999999998 442.1300000000002 L 336.47999999999985 441.8400000000002 L 332.46999999999986 441.9500000000002 L 328.6399999999999 441.30000000000024 L 325.3899999999999 443.59000000000026 L 325.3899999999999 443.59000000000026 L 326.22999999999985 442.5100000000003 L 326.95999999999987 440.97000000000025 L 328.21999999999986 439.83000000000027 L 335.77999999999986 435.29000000000025 L 337.72999999999985 433.42000000000024 L 338.98999999999984 430.99000000000024 L 340.71999999999986 429.30000000000024 L 341.11999999999983 428.09000000000026 L 342.55999999999983 427.0600000000003 L 342.8399999999998 425.84000000000026 L 342.4899999999998 425.0000000000003 L 344.4899999999998 422.7400000000003 L 345.69999999999976 420.4000000000003 L 345.76999999999975 419.4600000000003 L 345.45999999999975 417.5300000000003 L 345.68999999999977 417.1400000000003 L 346.64999999999975 416.62000000000035 L 349.2499999999998 412.98000000000036 L 349.4099999999998 410.05000000000035 L 350.0299999999998 408.37000000000035 L 351.0399999999998 408.07000000000033 L 351.7699999999998 407.43000000000035 L 353.7599999999998 404.75000000000034 L 354.97999999999985 403.73000000000036 L 355.4499999999999 403.50000000000034 L 356.7599999999999 403.4600000000003 L 358.2599999999999 402.68000000000035 L 358.53999999999985 402.28000000000037 L 358.9399999999998 399.8200000000004 L 358.9399999999998 399.8200000000004 L 360.15999999999985 398.6900000000004 L 362.30999999999983 397.5800000000004 L 364.22999999999985 397.2100000000004 L 365.65999999999985 395.5200000000004 L 367.15999999999985 394.91000000000037 L 367.90999999999985 395.05000000000035 L 369.6399999999999 396.60000000000036 L 372.1899999999999 396.68000000000035 L 376.4799999999999 397.6400000000003 L 378.1499999999999 397.2800000000003 L 379.7699999999999 397.50000000000034 L 381.7699999999999 396.91000000000037 L 383.94999999999993 398.3300000000004 L 385.61999999999995 399.1200000000004 L 385.48999999999995 400.0400000000004 L 385.81999999999994 401.46000000000043 L 387.0299999999999 403.5500000000004 L 387.6599999999999 403.5800000000004 L 388.19999999999993 403.2600000000004 L 388.86999999999995 402.3200000000004 L 389.28 401.1900000000004 L 389.53999999999996 401.0000000000004 L 390.09 401.0500000000004 L 390.45 401.4400000000004 L 390.7 402.4000000000004 L 390.71 405.18000000000035 L 391.90999999999997 405.7100000000003 L 392.32 405.26000000000033 L 392.05 402.7200000000003 L 392.54 401.5300000000003 L 392.99 401.0500000000003 L 401.17 400.3800000000003 L 402.18 399.1300000000003 L 403.68 400.59000000000026 L 404.8 401.02000000000027 L 407.58 400.33000000000027 L 408.02 399.34000000000026 L 407.82 398.8800000000003 L 408.13 398.27000000000027 L 410.51 398.16000000000025 L 412.17 398.9400000000002 L 413.02000000000004 398.30000000000024 L 414.33000000000004 398.0100000000002 L 417.59000000000003 401.36000000000024 L 417.79 402.40000000000026 L 417.22 403.41000000000025 L 416.93 405.78000000000026 L 417.51 406.39000000000027 L 419.4 407.60000000000025 L 419.79999999999995 409.15000000000026 L 419.73999999999995 409.71000000000026 L 418.21999999999997 411.74000000000024 L 418.03999999999996 413.68000000000023 L 418.83 414.42000000000024 L 419.14 415.03000000000026 L 419.51 417.24000000000024 L 420.81 419.04000000000025 L 421.64 421.03000000000026 L 421.61 421.8800000000003 L 423.22 421.83000000000027 L 424 421.52000000000027 L 424.28 421.16000000000025 L 425.28 421.11000000000024 L 428.97999999999996 422.43000000000023 L 429.21 422.80000000000024 L 429.15999999999997 424.0700000000002 L 428.46 426.2500000000002 L 426.59999999999997 428.97000000000025 L 426.85999999999996 431.91000000000025 L 426.66999999999996 435.36000000000024 L 426.14 436.92000000000024 L 426.86 438.52000000000027 L 428.64 439.7600000000003 L 430.45 440.59000000000026 L 430.96 442.3100000000003 L 429.75 443.0100000000003 L 431.77 446.3200000000003 L 432.9 446.5700000000003 L 434.90999999999997 446.33000000000027 L 435.09 446.86000000000024 L 438.71 445.86000000000024 L 439.27 446.28000000000026 L 440.58 445.96000000000026 L 441.33 444.98000000000025 L 441.38 444.14000000000027 L 441.14 443.90000000000026 L 441.31 441.60000000000025 L 442.5 441.27000000000027 L 442.59 441.6200000000003 L 442.23999999999995 442.1100000000003 L 442.24999999999994 442.5900000000003 L 444.5899999999999 442.6700000000003 L 446.9799999999999 442.4200000000003 L 448.7699999999999 441.7500000000003 L 449.99999999999994 440.5100000000003 L 451.92999999999995 439.4900000000003 L 454.13999999999993 439.27000000000027 L 455.37999999999994 438.54000000000025 L 455.37999999999994 438.54000000000025 L 456.6499999999999 439.08000000000027 L 457.2099999999999 440.2500000000003 L 458.43999999999994 441.84000000000026 L 460.2099999999999 442.23000000000025 L 463.3599999999999 441.7000000000003 L 465.0599999999999 441.71000000000026 L 465.8099999999999 443.35000000000025 L 464.1599999999999 445.5000000000002 L 462.6599999999999 446.2100000000002 L 459.88999999999993 446.5700000000002 L 459.38999999999993 446.42000000000024 L 457.0399999999999 447.43000000000023 L 455.94999999999993 448.5800000000002 L 454.85999999999996 452.0800000000002 L 454.90999999999997 452.49000000000024 L 456.53999999999996 454.22000000000025 L 457.02 454.48000000000025 L 457.02 454.48000000000025 L 456.96 454.68000000000023 L 455.27 455.10000000000025 L 454.21 454.28000000000026 L 452.72999999999996 455.39000000000027 L 452.29999999999995 456.04000000000025 L 452.56999999999994 456.2600000000003 L 451.80999999999995 456.90000000000026 L 448.5899999999999 458.4500000000003 L 446.3399999999999 459.15000000000026 L 446.05999999999995 459.59000000000026 L 446.09999999999997 460.55000000000024 L 446.59999999999997 462.10000000000025 L 446.28 462.52000000000027 L 444.88 462.78000000000026 L 444.18 462.14000000000027 L 442.84000000000003 461.85000000000025 L 439.72 461.35000000000025 L 438.86 461.5000000000002 L 437.54 461.8400000000002 L 435.81 462.6600000000002 L 435.31 463.1700000000002 L 434.1 465.32000000000016 L 432.79 465.89000000000016 L 432.29 465.77000000000015 L 432.87 465.3000000000001 L 432.39 464.0800000000001 L 431.21999999999997 463.2300000000001 L 430.39 464.4600000000001 L 430.65 465.2100000000001 L 430.34999999999997 465.8200000000001 L 422.72999999999996 470.0600000000001 L 421.78 470.8800000000001 L 421.46999999999997 472.04000000000013 L 418.2 475.04000000000013 L 414.95 476.9900000000001 L 413.03 477.5200000000001 L 408.53 480.7300000000001 L 406.2 482.69000000000005 L 405.53 482.77000000000004 L 405.09 483.39000000000004 L 405.98999999999995 483.82000000000005 L 406.65 483.88000000000005 L 407.58 483.52000000000004 L 407.58 484.28000000000003 L 406.96 485.59000000000003 L 405.64 486.44000000000005 L 404.58 487.92 z M 448.89 464.91 L 447.34999999999997 464.26000000000005 L 446.18999999999994 464.44000000000005 L 445.69999999999993 464.06000000000006 L 445.79999999999995 463.2800000000001 L 446.74999999999994 462.6300000000001 L 447.8399999999999 460.7800000000001 L 448.55999999999995 461.0300000000001 L 449.21999999999997 461.68000000000006 L 449.34999999999997 464.5900000000001 L 448.89 464.91 z"
                
                
                
               />
    </g>
</svg>