<?xml version="1.0" encoding="UTF-8"?>
<svg xmlns="http://www.w3.org/2000/svg" viewBox="0 0 1080 1080">
    <g transform="matrix(1 0 0 1 95.98 -93.17)">
        <path id="BR-TO" title="Tocantins" 
                fill="#ccc" stroke="#424242" stroke-width="0.5"
                vector-effect="non-scaling-stroke"
                transform=" translate(-401.98, -226.09)"
                d="M 433.35 281.82 L 427.99 283.24 L 426.25 284.58 L 423.69 285.68 L 422.14 285.68 L 417.61 286.68 L 415.09 288.76 L 413.31 289.66 L 412.85 289.42 L 411.34 286.8 L 410.79 286.77 L 410.28 290.07 L 409.59 290.15 L 406.24 289.47 L 403.11 288 L 403.67 286.44 L 403.45 285.7 L 398.92 286.23 L 396.16 285.89 L 395.6 286.43 L 395.3 287.43 L 394.55 288.18 L 393.41 288.13 L 392.8 285.03 L 391.69 281.32 L 390.65 279.44 L 389.5 278.13 L 388.32 279.1 L 386.85 281.49 L 385.22 287.43 L 384.59 287.66 L 380.52 286.23 L 377.43 284.52 L 373.5 284.12 L 371.3 283.09 L 368.9 282.69 L 369.42 280.35 L 370.64 278.47 L 370.67 276.76 L 370.11 277.06 L 368.3 279.15 L 367.64 280.38 L 367.44 282.26 L 367.1 282.71 L 367.1 282.71 L 366.3 282.69 L 365.34 282.18 L 364.36 278.84 L 365.1 276.08 L 364.66 273.03 L 364.14 272.45 L 364.13 270.88 L 364.6 267.57 L 363.5 265.32 L 363.55 264.82 L 364.37 263.93 L 364.53 263.06 L 363.14 261.72 L 363.08 260.86 L 364.96 254.87 L 365 251.92 L 365.54 248.95 L 367.48 243.66 L 367.85 243.39 L 368.28 242.54 L 368.72 239.4 L 369.82 238.15 L 370.38 236.26 L 371.03 235.24 L 371.03 235.24 L 372.65 231.55 L 373.78 227.1 L 374.93 225.52 L 376.12 224.42 L 377.33 222.74 L 378.36 220.82 L 379.73 219.9 L 380.78 219.74 L 381.51 218.89 L 382.45 217.35 L 382.63 216.36 L 384.33 213.12 L 385.42 212.32 L 387.18 207.17 L 387.84 203.13 L 387.69 202.83 L 386.95 202.51 L 385.28 200.77 L 384.68 199.82 L 384.52 198.94 L 384.66 198.37 L 386.07 196.68 L 387.36 194.58 L 387.3 191.91 L 386.87 189.73 L 387.06 189.38 L 389.53 187.6 L 392.94 186.46 L 395.44 185.25 L 395.68 184.75 L 395.53 183.24 L 396.39 181.97 L 397.9 180.63 L 399.19 180.48 L 399.38 179.14 L 399.09 177.94 L 399.34 177.48 L 400.8 177.02 L 401.44 176.54 L 402.37 173.79 L 401.35 172.45 L 401.26 171.05 L 401.55 170.77 L 402.52 170.69 L 403.24 170.32 L 403.61 169.66 L 403.64 169.02 L 402.38 167.85 L 401.51 167.71 L 401.12 167.4 L 400.1 165.74 L 398.81 165.62 L 396.94 165.87 L 394.65 165.06 L 394.65 165.06 L 395.18 164.42 L 397.8 162.57 L 399.76 162.04 L 400.63 162.09 L 403.41 163.61 L 404.81 163.69 L 405.76 163.17 L 407.5 163.46 L 408.09 164.15 L 408.17 165.18 L 408.45 165.5 L 409.67 165.53 L 413.07 166.96 L 413.91 167.99 L 414.38 171.49 L 415.02 172.99 L 414.81 176.71 L 415.04 177.79 L 415.71 178.92 L 415.7 179.36 L 413.93 185.51 L 413.62 187.88 L 413.9 188.88 L 413.65 190.47 L 411.9 192.51 L 410.14 193.18 L 409.96 193.89 L 411.9 195.21 L 412.32 194.94 L 413.69 195.18 L 413.94 195.53 L 414.05 196.41 L 413.43 197.6 L 414.28 199.04 L 415.16 198.97 L 418.16 203.13 L 419.07 203.98 L 421.35 207 L 423.49 205.66 L 427.76 204.72 L 429.56 205.94 L 429.64 207.69 L 429 210.94 L 429.39 212.29 L 426 212.64 L 424.66 213.18 L 424.09 213.73 L 423.41 215.16 L 422.68 217.84 L 423.05 219.14 L 420.42 221.69 L 420.16 222.39 L 420.36 222.81 L 422.44 223.1 L 423.38 223.79 L 424.12 225.38 L 424.18 227.04 L 424.8 228.08 L 428.68 230.03 L 428.77 230.56 L 427.13 232.37 L 427.26 234.02 L 429.4 235.64 L 430.39 238.51 L 431.73 240.51 L 432.44 240.69 L 434.22 240.48 L 435.22 240.78 L 436.04 241.22 L 436.65 242.04 L 437.93 242.7 L 437.93 242.7 L 440.87 242.91 L 440.87 242.91 L 440.18 243.56 L 439.96 244.54 L 439.4 245.01 L 435.58 247.03 L 432.37 249.65 L 432.18 250.02 L 433.47 251.82 L 433.11 252.21 L 432.1 252.48 L 431.2 253.09 L 429.68 256.58 L 428.67 257.3 L 428.17 258.46 L 428.4 259.38 L 430.26 261.33 L 433.85 262 L 435.72 262.99 L 435.77 263.75 L 435.21 264.2 L 433.17 265.01 L 432.74 265.97 L 432.83 266.47 L 433.18 266.8 L 434.21 266.62 L 435.13 266.91 L 435.71 267.42 L 436 268.06 L 435.04 268.77 L 433.89 269.19 L 431.94 270.86 L 431.75 271.71 L 431.7 274.63 L 432.05 275.88 L 432.99 276.54 L 434.04 276.78 L 434.45 277.03 L 434.62 277.45 L 434.67 278.51 L 433.31 280.89 z"
                
                
                
               />
    </g>
</svg>